<svg width="12" height="15" viewBox="0 0 12 15" fill="none" xmlns="http://www.w3.org/2000/svg">
<path d="M1.80858 0.605935L2.81644 0.302363C3.27523 0.163949 3.76871 0.197226 4.20476 0.395981C4.64082 0.594736 4.98964 0.945385 5.18611 1.38247L5.81329 2.77768C5.98229 3.15354 6.02937 3.57288 5.94792 3.97686C5.86647 4.38084 5.66058 4.74917 5.35915 5.03018L4.26326 6.05201C4.24971 6.06465 4.2386 6.07968 4.23047 6.09633C4.11572 6.33069 4.28997 6.95665 4.83579 7.90258C5.45144 8.96872 5.92683 9.39008 6.14722 9.32511L7.58554 8.88494C7.97945 8.76465 8.40112 8.77063 8.79145 8.90205C9.18178 9.03347 9.5212 9.28373 9.76215 9.61776L10.6534 10.8521C10.9333 11.2396 11.0629 11.7156 11.0182 12.1915C10.9735 12.6675 10.7576 13.111 10.4106 13.4397L9.64376 14.1653C9.3771 14.4178 9.05329 14.6022 8.69997 14.7025C8.34665 14.8028 7.97429 14.8162 7.61469 14.7414C5.47936 14.297 3.56626 12.5776 1.85897 9.62079C0.151078 6.66219 -0.381386 4.14254 0.304685 2.07036C0.41953 1.72344 0.616193 1.40927 0.878058 1.15438C1.13992 0.899487 1.45929 0.711375 1.80919 0.605935H1.80858ZM2.07208 1.47779C1.86213 1.54103 1.6705 1.65387 1.51336 1.80678C1.35622 1.95969 1.23819 2.14819 1.16926 2.35633C0.5779 4.14193 1.05694 6.41022 2.64765 9.16543C4.23715 11.9188 5.96022 13.467 7.79986 13.8495C8.01573 13.8944 8.23925 13.8864 8.45134 13.8261C8.66343 13.7659 8.85778 13.6552 9.01779 13.5035L9.78401 12.7785C9.97095 12.6016 10.0873 12.3628 10.1114 12.1065C10.1355 11.8502 10.0658 11.5939 9.91515 11.3851L9.02386 10.1502C8.89415 9.9704 8.71142 9.83566 8.50129 9.76489C8.29116 9.69412 8.06415 9.69087 7.85208 9.75558L6.41011 10.197C5.61233 10.4344 4.8619 9.76954 4.04711 8.35733C3.35679 7.16247 3.11758 6.29911 3.41265 5.69622C3.46972 5.57965 3.54744 5.47461 3.64215 5.38597L4.73804 4.36415C4.90042 4.21284 5.01133 4.01448 5.05521 3.79691C5.0991 3.57935 5.07375 3.3535 4.98272 3.15108L4.35554 1.75647C4.24975 1.52106 4.06189 1.3322 3.82704 1.22516C3.59219 1.11813 3.32641 1.10024 3.07933 1.17483L2.07147 1.4784L2.07208 1.47779Z" fill="#E8E8E8" fill-opacity="0.7"/>
</svg>
