<svg width="152" height="154" viewBox="0 0 152 154" fill="none" xmlns="http://www.w3.org/2000/svg">
<path d="M7.98607 71.9018C8.10423 71.2949 8.12069 70.7194 8.03545 70.1753C7.95162 69.6172 7.69919 69.1255 7.27816 68.7003C6.81962 68.2288 6.27586 67.9031 5.64688 67.7231C5.00398 67.5417 4.38168 67.5032 3.77998 67.6077C3.17828 67.7123 2.65357 67.9588 2.20586 68.3474C1.75815 68.7359 1.50021 69.2645 1.43205 69.933C1.34259 70.8105 1.53111 71.5839 1.99761 72.2534C2.4516 72.9074 3.12108 73.3803 4.00603 73.6722L3.07666 74.7132C2.24681 74.0189 1.67889 73.24 1.3729 72.3766C1.05298 71.5116 0.957217 70.6566 1.0856 69.8114C1.21114 68.9942 1.46452 68.3032 1.84575 67.7386C2.22699 67.174 2.67825 66.7506 3.19954 66.4685C3.70834 66.171 4.25166 66.0179 4.8295 66.0094C5.39483 65.9854 5.93134 66.1062 6.43902 66.3718C6.9467 66.6373 7.38378 67.0432 7.75028 67.5893C8.11677 68.1354 8.34861 68.829 8.4458 69.6701C8.59322 69.0523 8.84562 68.5091 9.20299 68.0404C9.56178 67.5579 9.9879 67.1741 10.4814 66.889C10.9623 66.5885 11.4897 66.3845 12.0636 66.2769C12.6249 66.154 13.1896 66.137 13.7575 66.226C14.3129 66.2995 14.8569 66.4845 15.3896 66.7808C15.9237 67.0633 16.39 67.4582 16.7886 67.9655C17.6622 69.0587 18.0131 70.4479 17.8413 72.1332C17.7873 72.6624 17.6324 73.2161 17.3764 73.7941C17.1358 74.3597 16.8229 74.8753 16.4377 75.3409C16.0539 75.7926 15.6153 76.161 15.1219 76.4461C14.6159 76.7158 14.0775 76.8201 13.5068 76.759C12.7969 76.683 12.2933 76.446 11.9961 76.0482C11.6836 75.6627 11.5458 75.2889 11.5828 74.9268C11.5998 74.7597 11.6572 74.6109 11.7549 74.4806C11.8387 74.3488 11.937 74.2818 12.0498 74.2798C12.162 74.5594 12.337 74.7752 12.5748 74.9274C12.8001 75.0642 13.1355 75.1564 13.5809 75.2041C14.082 75.2577 14.5485 75.2372 14.9803 75.1427C15.4136 75.0342 15.8052 74.8508 16.1552 74.5926C16.4912 74.3329 16.7718 73.9969 16.9968 73.5845C17.2078 73.1706 17.3432 72.6712 17.4028 72.0862C17.542 70.7213 17.1792 69.725 16.3144 69.0974C15.9084 68.8005 15.4334 68.5596 14.8893 68.3746C14.3328 68.1742 13.7622 68.0428 13.1775 67.9802C12.5929 67.9176 12.0213 67.9338 11.4628 68.0289C10.8903 68.1225 10.3859 68.3079 9.94959 68.585C9.40728 68.9353 9.02065 69.4148 8.7897 70.0237C8.56018 70.6186 8.45238 71.2618 8.46633 71.9532L7.98607 71.9018Z" fill="#2D2D2D"/>
<path d="M14.6653 60.8223L16.5377 52.0376L6.27254 53.1154L14.6653 60.8223ZM22.5615 51.4075L17.2799 51.9577L15.1183 61.2392L18.0687 63.9628L17.8281 64.6351L5.51062 53.188C5.40001 53.2062 5.3109 53.2475 5.24328 53.3118C5.16256 53.3712 5.08367 53.4463 5.00662 53.5369L4.96574 53.5889L4.61189 53.4559L5.32417 51.8394L23.0851 49.9443L22.5615 51.4075Z" fill="#2D2D2D"/>
<path d="M23.9122 48.2822L10.8753 38.7875L17.1234 29.7805L30.1604 39.2753L29.3823 40.3968L16.7528 31.1987L12.0607 37.9626L24.6902 47.1607L23.9122 48.2822Z" fill="#2D2D2D"/>
<path d="M35.1791 34.982L34.1441 35.872L23.9259 23.394L24.9609 22.504L33.5426 32.9836L32.3469 18.5342L31.2026 17.1369L32.2376 16.2469L42.4559 28.7249L41.4209 29.6149L32.8924 19.2003L34.1014 33.666L35.1791 34.982Z" fill="#2D2D2D"/>
<path d="M56.9544 18.522C56.6767 19.165 56.2001 19.8948 55.5245 20.7112C54.8489 21.5275 53.9167 22.2178 52.7277 22.782C50.6281 23.7784 48.4288 23.9931 46.1297 23.4263C43.8305 22.8595 42.1534 21.4088 41.0983 19.0741C40.0029 16.6502 40.0079 14.316 41.1134 12.0716C42.2315 9.82123 43.815 8.20988 45.864 7.23755C46.9391 6.72738 47.9564 6.44608 48.9157 6.39365C49.8694 6.32846 50.6333 6.3533 51.2074 6.46818L51.1449 7.70636C50.4221 7.39861 49.6362 7.20605 48.7871 7.12867C47.9323 7.03853 46.9546 7.25455 45.8542 7.77672C44.0398 8.62225 42.7729 9.98263 42.0536 11.8578C41.3343 13.7331 41.4589 15.7423 42.4275 17.8856C43.6383 20.5647 45.2534 22.0991 47.2727 22.4888C49.2921 22.8785 51.1366 22.6772 52.8062 21.8849C53.8939 21.3687 54.752 20.7523 55.3805 20.0358C56.0217 19.3132 56.4548 18.759 56.6799 18.3734L56.9544 18.522Z" fill="#2D2D2D"/>
<path d="M60.4182 14.7596L69.0214 12.2143L63.0968 3.71901L60.4182 14.7596ZM72.496 17.2006L69.4516 12.8276L60.2727 15.3559L59.3185 19.2439L58.613 19.3533L62.6636 3.08493C62.5939 2.99656 62.5145 2.93804 62.4254 2.90936C62.3342 2.86684 62.2302 2.83338 62.1134 2.80899L62.048 2.79787L61.9928 2.42393L63.7544 2.27827L74.0317 16.9624L72.496 17.2006Z" fill="#2D2D2D"/>
<path d="M82.8378 2.01183L82.7124 1.99941L81.2445 17.5543L79.928 17.4238L81.3958 1.86895L81.2704 1.85653C80.6157 1.79165 79.8385 1.75684 78.939 1.75212C78.0394 1.7474 77.3967 1.85254 77.0108 2.06753L76.9332 1.99653L77.5562 0.982031L86.6467 1.88279L87.0685 3.00082L86.979 3.05525C86.6405 2.76848 86.0293 2.5391 85.1456 2.36712C84.2618 2.19514 83.4926 2.07671 82.8378 2.01183Z" fill="#2D2D2D"/>
<path d="M93.0428 9.43704C93.3732 9.41538 93.7239 9.44488 94.0949 9.52555C94.4835 9.59736 94.8304 9.68466 95.1356 9.78745C95.9492 10.0467 96.6515 10.4236 97.2426 10.9182C97.8513 11.4038 98.335 11.9582 98.6938 12.5813C99.0568 13.191 99.2902 13.8383 99.3939 14.5232C99.4977 15.2081 99.4668 15.8772 99.3013 16.5305C99.1359 17.1838 98.8223 17.7946 98.3607 18.3629C97.9166 18.9223 97.3063 19.3814 96.5296 19.7402C95.8231 20.0635 95.0755 20.2401 94.2868 20.2699C93.5024 20.2863 92.7055 20.1582 91.8962 19.8856C91.6707 19.8096 91.4162 19.7091 91.1329 19.5842C90.8495 19.4592 90.597 19.3298 90.3753 19.196C89.9362 18.9152 89.5109 18.7055 89.0997 18.5669C89.0333 18.5446 88.9715 18.5312 88.9141 18.5266C88.8611 18.5087 88.8058 18.4975 88.7485 18.493L88.7151 18.4596L93.6094 3.20238L94.903 3.6381L93.0428 9.43704ZM90.2204 18.2354C90.3638 18.4758 90.5843 18.7051 90.8817 18.9235C91.1968 19.133 91.5798 19.3137 92.0309 19.4657C92.7208 19.6981 93.3561 19.757 93.9368 19.6424C94.5308 19.5322 95.0597 19.3042 95.5235 18.9582C96.0006 18.6167 96.4107 18.1861 96.7538 17.6665C97.1012 17.1336 97.3756 16.576 97.577 15.994C97.7694 15.3941 97.8649 14.7985 97.8635 14.2071C97.8621 13.6158 97.753 13.0621 97.5364 12.5459C97.3373 12.021 97.0241 11.5536 96.5969 11.1438C96.183 10.7385 95.651 10.4263 95.0009 10.2074C94.5498 10.0554 94.1346 9.97468 93.7555 9.96513C93.3938 9.94672 93.0857 9.99065 92.8311 10.0969L90.2204 18.2354Z" fill="#2D2D2D"/>
<path d="M113.808 29.0283C113.13 29.1354 112.274 29.1174 111.241 28.9742C110.208 28.8311 109.141 28.3981 108.042 27.6752C106.099 26.3988 104.748 24.6143 103.987 22.3218C103.226 20.0293 103.525 17.7973 104.884 15.6257C106.295 13.371 108.221 12.1156 110.66 11.8595C113.11 11.6112 115.283 12.1099 117.179 13.3556C118.173 14.0092 118.948 14.7364 119.504 15.537C120.067 16.3258 120.454 16.9993 120.666 17.5574L119.613 18.1716C119.48 17.381 119.219 16.598 118.829 15.8226C118.447 15.0353 117.747 14.3071 116.729 13.6381C115.064 12.5266 113.267 12.1661 111.338 12.5566C109.409 12.9471 107.821 14.1391 106.573 16.1327C105.013 18.6248 104.612 20.8484 105.369 22.8035C106.127 24.7587 107.278 26.2438 108.822 27.2589C109.828 27.9202 110.794 28.329 111.72 28.4853C112.658 28.6494 113.346 28.7246 113.784 28.7109L113.808 29.0283Z" fill="#2D2D2D"/>
<path d="M114.694 32.5382C114.486 32.3109 114.342 32.0606 114.263 31.7873C114.194 31.5044 114.184 31.2133 114.233 30.9142L114.409 30.9199C114.401 31.1603 114.429 31.3567 114.493 31.5091C114.565 31.6719 114.659 31.8153 114.772 31.9393C115.036 32.2286 115.47 32.2979 116.071 32.1472C116.673 31.9964 117.56 31.3588 118.731 30.2343L119.731 29.2745C120.994 28.0627 122.146 27.529 123.188 27.6734C124.24 27.828 124.994 28.1133 125.45 28.5292C125.256 28.172 125.049 27.4786 124.828 26.4488C124.617 25.4094 124.825 24.5892 125.451 23.9881C126.057 23.4065 126.813 23.1856 127.718 23.3254C128.633 23.4757 129.412 23.9021 130.054 24.6048C130.46 25.0491 130.711 25.4383 130.808 25.7723C130.905 26.1062 131.114 26.4489 131.435 26.8002C131.511 26.8829 131.582 26.9504 131.648 27.0027C131.715 27.055 131.796 27.1128 131.892 27.1761L131.905 27.2216L120.27 38.3895L119.349 37.382L130.591 26.5922C130.541 26.3099 130.462 26.0366 130.353 25.7724C130.264 25.5089 130.097 25.2427 129.851 24.9741C129.407 24.4884 128.872 24.2554 128.245 24.275C127.628 24.3049 127.041 24.5865 126.486 25.1196C125.799 25.7789 125.491 26.5106 125.563 27.3149C125.644 28.1296 125.884 28.8492 126.285 29.4738L125.964 29.8392C125.931 29.6777 125.881 29.5408 125.816 29.4284C125.752 29.316 125.672 29.2082 125.578 29.1048C125.266 28.7638 124.685 28.5644 123.836 28.5065C123.006 28.4493 121.945 29.0412 120.652 30.282L119.47 31.4163C118.45 32.3954 117.508 32.951 116.642 33.0831C115.797 33.2159 115.147 33.0342 114.694 32.5382Z" fill="#2D2D2D"/>
<path d="M127.102 48.1207L141.996 41.9329L142.498 43.2022L137.184 45.4098L140.213 53.0644L145.527 50.8567L146.029 52.126L131.135 58.3138L130.633 57.0446L139.748 53.2578L136.719 45.6032L127.604 49.39L127.102 48.1207Z" fill="#2D2D2D"/>
<path d="M137.903 62.6337L140.125 71.3102L148.821 65.5858L137.903 62.6337ZM135.021 74.6674L139.497 71.726L137.314 62.4735L133.469 61.423L133.386 60.7139L149.47 65.1675C149.56 65.0999 149.622 65.0218 149.654 64.9333C149.699 64.843 149.737 64.7397 149.765 64.6233L149.779 64.5582L150.154 64.512L150.234 66.2794L135.202 76.2109L135.021 74.6674Z" fill="#2D2D2D"/>
<path d="M142.562 93.011C142.35 93.5915 142.244 94.1577 142.243 94.7095C142.238 95.2748 142.41 95.802 142.758 96.291C143.137 96.8319 143.622 97.2427 144.214 97.5232C144.819 97.8076 145.426 97.9472 146.036 97.9421C146.645 97.937 147.201 97.779 147.703 97.4681C148.206 97.1571 148.543 96.6768 148.714 96.0272C148.94 95.1745 148.875 94.3792 148.52 93.6413C148.175 92.9207 147.589 92.3439 146.762 91.911L147.841 91.0338C148.551 91.8555 148.989 92.7181 149.155 93.6215C149.335 94.5287 149.296 95.3895 149.037 96.2039C148.785 96.9912 148.427 97.6328 147.963 98.1286C147.499 98.6244 146.988 98.9692 146.43 99.1629C145.882 99.374 145.322 99.4365 144.751 99.3506C144.19 99.282 143.68 99.075 143.221 98.7296C142.762 98.3842 142.395 97.9117 142.119 97.3121C141.843 96.7125 141.723 95.9891 141.759 95.1418C141.517 95.7284 141.183 96.2241 140.758 96.6289C140.328 97.0473 139.848 97.3571 139.317 97.5583C138.796 97.7768 138.244 97.8924 137.662 97.9049C137.089 97.9348 136.53 97.8594 135.984 97.6788C135.448 97.5154 134.941 97.2437 134.462 96.8638C133.98 96.4974 133.582 96.031 133.268 95.4645C132.578 94.2413 132.449 92.8108 132.883 91.1731C133.019 90.6588 133.258 90.1369 133.601 89.6073C133.926 89.0876 134.316 88.629 134.768 88.2317C135.217 87.8479 135.707 87.5554 136.238 87.3541C136.779 87.1702 137.326 87.155 137.879 87.3086C138.567 87.4996 139.027 87.8161 139.257 88.2579C139.505 88.6899 139.582 89.0818 139.489 89.4337C139.446 89.5962 139.367 89.7338 139.25 89.8467C139.147 89.9633 139.039 90.0134 138.928 89.997C138.861 89.7023 138.722 89.4604 138.511 89.2712C138.311 89.0992 137.995 88.9533 137.563 88.8334C137.077 88.6986 136.614 88.6426 136.174 88.6656C135.73 88.7021 135.315 88.8194 134.93 89.0175C134.558 89.2193 134.229 89.5056 133.942 89.8765C133.669 90.2511 133.458 90.7227 133.307 91.2911C132.957 92.6175 133.158 93.6615 133.913 94.4231C134.266 94.7828 134.697 95.0985 135.204 95.3702C135.722 95.6591 136.264 95.8822 136.83 96.0395C137.397 96.1969 137.963 96.2741 138.528 96.2714C139.107 96.2723 139.633 96.1714 140.107 95.9688C140.696 95.7111 141.153 95.3002 141.475 94.7361C141.795 94.1856 142.002 93.5674 142.096 92.8818L142.562 93.011Z" fill="#2D2D2D"/>
<path d="M133.451 102.252L130.221 110.64L140.505 111.226L133.451 102.252ZM124.187 110.293L129.477 110.599L133.07 101.767L130.593 98.5978L130.936 97.9716L141.267 111.277C141.379 111.276 141.473 111.25 141.55 111.197C141.639 111.151 141.728 111.09 141.818 111.013L141.867 110.968L142.195 111.156L141.238 112.641L123.44 111.656L124.187 110.293Z" fill="#2D2D2D"/>
<path d="M122.256 113.558L133.604 125.018L132.658 126.002L128.609 121.914L122.903 127.847L126.952 131.935L126.005 132.919L114.658 121.459L115.604 120.475L122.548 127.489L128.255 121.555L121.31 114.542L122.256 113.558Z" fill="#2D2D2D"/>
<path d="M111.581 124.145C111.84 123.977 112.108 123.879 112.385 123.85C112.67 123.832 112.952 123.875 113.229 123.979L113.19 124.154C112.961 124.103 112.767 124.095 112.608 124.131C112.437 124.174 112.282 124.242 112.141 124.333C111.811 124.546 111.661 124.968 111.688 125.6C111.716 126.233 112.156 127.24 113.008 128.623L113.734 129.803C114.652 131.293 114.94 132.548 114.599 133.569C114.246 134.597 113.826 135.303 113.338 135.685C113.719 135.555 114.424 135.474 115.456 135.44C116.495 135.419 117.241 135.777 117.697 136.516C118.137 137.232 118.202 138.031 117.892 138.915C117.57 139.807 117.009 140.511 116.21 141.028C115.704 141.355 115.282 141.537 114.943 141.573C114.603 141.609 114.234 141.756 113.834 142.015C113.74 142.076 113.661 142.135 113.598 142.192C113.535 142.25 113.464 142.321 113.384 142.406L113.338 142.411L104.88 128.678L106.026 127.937L114.198 141.205C114.478 141.206 114.756 141.177 115.031 141.116C115.301 141.074 115.589 140.955 115.895 140.757C116.447 140.4 116.775 139.904 116.878 139.271C116.969 138.645 116.813 138.005 116.409 137.349C115.91 136.538 115.268 136.096 114.482 136.02C113.684 135.953 112.946 136.063 112.269 136.351L111.98 135.963C112.142 135.958 112.283 135.934 112.403 135.889C112.524 135.845 112.643 135.784 112.761 135.708C113.148 135.457 113.453 134.911 113.673 134.068C113.89 133.245 113.528 132.07 112.588 130.544L111.729 129.149C110.988 127.946 110.638 126.897 110.679 126.003C110.716 125.129 111.017 124.51 111.581 124.145Z" fill="#2D2D2D"/>
<path d="M101.766 147.44L101.884 147.396L96.6745 132.666L97.9147 132.206L103.124 146.935L103.243 146.892C103.859 146.662 104.574 146.352 105.386 145.961C106.198 145.57 106.732 145.192 106.989 144.828L107.089 144.858L106.954 146.051L98.3906 149.231L97.5413 148.404L97.5991 148.315C98.0243 148.426 98.6709 148.365 99.5389 148.133C100.407 147.9 101.149 147.669 101.766 147.44Z" fill="#2D2D2D"/>
<path d="M88.224 135.526L89.58 135.37L91.3363 151.402L89.9802 151.558L88.5052 138.094L81.6055 150.704L81.8021 152.499L80.4461 152.655L78.6898 136.623L80.0459 136.467L81.5117 149.848L88.4092 137.217L88.224 135.526Z" fill="#2D2D2D"/>
<path d="M74.1598 136.59C74.4653 136.629 74.7355 136.727 74.9704 136.883C75.2036 137.054 75.3961 137.269 75.5481 137.528L75.408 137.638C75.2615 137.45 75.1152 137.318 74.9692 137.243C74.8092 137.166 74.6459 137.117 74.4793 137.096C74.0904 137.047 73.7104 137.274 73.3393 137.777C72.9682 138.28 72.6851 139.338 72.4901 140.95L72.3237 142.326C72.1135 144.064 71.5584 145.214 70.6583 145.777C69.7443 146.338 68.9784 146.608 68.3606 146.586C68.7377 146.732 69.3387 147.126 70.1637 147.767C70.987 148.422 71.3465 149.181 71.2423 150.042C71.1414 150.876 70.6954 151.532 69.9043 152.01C69.0993 152.487 68.2246 152.665 67.2802 152.545C66.683 152.469 66.2408 152.335 65.9538 152.144C65.6667 151.952 65.2871 151.826 64.8149 151.766C64.7038 151.752 64.6057 151.747 64.5207 151.75C64.4357 151.753 64.336 151.762 64.2215 151.775L64.1823 151.749L66.119 135.738L67.4731 135.91L65.602 151.379C65.8196 151.562 66.0545 151.719 66.3066 151.85C66.5432 151.993 66.842 152.087 67.2031 152.133C67.8558 152.216 68.4191 152.048 68.8929 151.628C69.3529 151.206 69.629 150.614 69.7215 149.849C69.8358 148.904 69.6099 148.149 69.0438 147.583C68.4637 147.015 67.8202 146.623 67.1131 146.406L67.1295 145.921C67.2583 146.022 67.3835 146.095 67.5051 146.138C67.6267 146.182 67.757 146.213 67.8959 146.23C68.3542 146.289 68.9312 146.065 69.6267 145.561C70.3068 145.069 70.7544 143.933 70.9696 142.154L71.1662 140.528C71.336 139.124 71.7146 138.093 72.302 137.434C72.8739 136.786 73.4931 136.505 74.1598 136.59Z" fill="#2D2D2D"/>
<path d="M53.8998 132.279L55.098 132.932L47.661 147.243L46.4628 146.589L52.7087 134.571L40.0694 141.044L39.2366 142.646L38.0384 141.993L45.4754 127.682L46.6736 128.335L40.4664 140.28L53.1154 133.788L53.8998 132.279ZM42.408 145.286C42.789 145.494 43.1043 145.722 43.3541 145.969C43.5974 146.23 43.7786 146.488 43.8978 146.745C44.0105 147.013 44.0737 147.271 44.0875 147.518C44.0825 147.77 44.0316 147.99 43.9348 148.176C43.8573 148.325 43.7407 148.413 43.5849 148.439C43.4168 148.459 43.2652 148.432 43.13 148.359C42.9883 148.297 42.8848 148.193 42.8194 148.046C42.7475 147.911 42.7723 147.757 42.8937 147.584C43.139 147.112 43.215 146.723 43.1217 146.417C43.0161 146.104 42.7297 145.82 42.2627 145.565C41.7957 145.31 41.4123 145.229 41.1124 145.32C40.8002 145.405 40.5214 145.683 40.2761 146.155C40.2038 146.355 40.093 146.462 39.9437 146.476C39.7879 146.503 39.6456 146.473 39.5169 146.387C39.3694 146.307 39.263 146.193 39.1976 146.045C39.1199 145.891 39.1197 145.74 39.1972 145.591C39.294 145.404 39.4494 145.242 39.6633 145.104C39.8585 144.971 40.1025 144.881 40.3953 144.833C40.6694 144.792 40.9797 144.801 41.3263 144.863C41.6665 144.937 42.027 145.078 42.408 145.286Z" fill="#2D2D2D"/>
<path d="M35.0438 132.432C33.3781 134.172 31.3129 134.956 28.8482 134.784C26.3737 134.603 24.366 133.729 22.8252 132.161C21.2745 130.584 20.4066 128.533 20.2214 126.009C20.0167 123.484 20.757 121.353 22.4422 119.613C24.147 117.853 26.2318 117.069 28.6965 117.261C31.1515 117.442 33.1543 118.322 34.7049 119.899C36.2458 121.467 37.1137 123.507 37.3086 126.022C37.4938 128.546 36.7388 130.683 35.0438 132.432ZM33.7779 131.175C35.4242 129.475 36.2974 127.588 36.3974 125.514C36.4877 123.45 35.8164 121.689 34.3835 120.231C32.9408 118.763 31.2125 118.083 29.1986 118.191C27.1749 118.288 25.3399 119.187 23.6936 120.886C22.057 122.575 21.1985 124.457 21.118 126.531C21.0277 128.596 21.7039 130.362 23.1466 131.829C24.5795 133.287 26.3127 133.962 28.3461 133.854C30.36 133.747 32.1706 132.854 33.7779 131.175Z" fill="#2D2D2D"/>
<path d="M27.8488 109.949L28.5176 111.139L14.6279 119.336L10.9442 112.782L11.8884 111.591L11.9941 111.651C11.8004 112.22 11.7634 112.697 11.8831 113.081C11.9839 113.461 12.2298 113.998 12.6208 114.694L14.4112 117.879L27.8488 109.949Z" fill="#2D2D2D"/>
<path d="M21.4579 100.01L21.8459 101.319L6.44676 106.112L6.05876 104.803L18.9916 100.778L5.4432 96.3742L3.71881 96.911L3.33081 95.6023L18.73 90.8087L19.118 92.1174L6.26529 96.1183L19.8338 100.515L21.4579 100.01Z" fill="#2D2D2D"/>
<path d="M76.391 64.856L96.6093 77.0429L100.177 79.5974L106.124 77.0429L100.177 74.6055L76.391 64.856Z" fill="#2D2D2D"/>
<path d="M100.177 79.5974L96.6093 77.0429L76.4514 89.7889L100.177 79.5974Z" fill="#2D2D2D"/>
<path d="M96.6096 77.0435H45.4692" stroke="#2D2D2D"/>
</svg>
