<?xml version="1.0" standalone="no"?>
<!DOCTYPE svg PUBLIC "-//W3C//DTD SVG 1.1//EN" "http://www.w3.org/Graphics/SVG/1.1/DTD/svg11.dtd" >
<svg>
<metadata>
Created by FontForge 20090914 at Sat Jun 18 07:56:09 2022
 By www-data
</metadata>
<defs>
<font id="New-YorkerC" horiz-adv-x="662" >
  <font-face 
    font-family="New-YorkerC"
    font-weight="400"
    font-stretch="normal"
    units-per-em="1000"
    panose-1="2 0 0 0 0 0 0 0 0 0"
    ascent="800"
    descent="-200"
    x-height="767.999"
    cap-height="768"
    bbox="-11.001 -206 1168 945"
    underline-thickness="0"
    underline-position="0"
    unicode-range="U+0020-U+2122"
  />
<missing-glyph horiz-adv-x="270" 
 />
    <glyph glyph-name=".notdef" horiz-adv-x="270" 
 />
    <glyph glyph-name="space" unicode=" " horiz-adv-x="270" 
 />
    <glyph glyph-name="space" unicode="&#xa0;" horiz-adv-x="270" 
 />
    <glyph glyph-name="exclam" unicode="!" horiz-adv-x="160" 
d="M99 768l-0.000976562 -251c0 -77.333 -2.66699 -146.5 -8 -207.5s-10.666 -107.5 -15.999 -139.5h-13c-4.66699 32 -9.66699 78.5 -15 139.5s-8 130.167 -8 207.5v251h60zM118.999 45c0 -13.333 -4.83301 -25 -14.5 -35s-21.167 -15 -34.5 -15c-14 0 -25.833 5 -35.5 15
s-14.5 21.667 -14.5 35c0 14 4.83301 25.833 14.5 35.5s21.5 14.5 35.5 14.5c13.333 0 24.833 -4.83301 34.5 -14.5s14.5 -21.5 14.5 -35.5z" />
    <glyph glyph-name="quotedbl" unicode="&#x22;" horiz-adv-x="246" 
d="M101 768l-19 -227h-17l-20 227h56zM201 768l-19 -227h-17l-20 227h56z" />
    <glyph glyph-name="numbersign" unicode="#" horiz-adv-x="577" 
d="M372 514h-130l-54 -141h130zM271 175l-25 13l60 156h-130l-65 -169l-25 13l60 156h-96v29h108l54 141h-122v29h133l65 167l26 -11l-60 -156h129l65 167l26 -11l-60 -156h113v-29h-125l-54 -141h139v-29h-151z" />
    <glyph glyph-name="dollar" unicode="$" horiz-adv-x="490" 
d="M213 570c0 -18.667 3.66797 -35.832 11.001 -51.499s16.666 -29.834 27.999 -42.501l56 235c-26.667 -2 -49.167 -15 -67.5 -39s-27.5 -58 -27.5 -102zM292.001 436.002l62.999 263.998c-4.66699 2.66699 -9.5 4.83398 -14.5 6.50098s-10.5 2.83398 -16.5 3.50098
l-59 -248c4.66699 -4.66699 9.33398 -9 14.001 -13zM204 65l75.002 314c-4.66699 4.66699 -9.33398 9 -14.001 13s-9.33398 8.33301 -14.001 13l-79 -334c4.66699 -1.33301 9.66699 -2.5 15 -3.5s11 -1.83301 17 -2.5zM369.002 225c0 28.667 -7.66699 54.167 -23 76.5
s-33.333 43.833 -54 64.5l-72 -302c52.667 0.666992 90.667 18 114 52s35 70.333 35 109zM216.002 41l-0.99707 0.000976562l-15 -63l-16 5l14 59c-5.33301 0 -10.666 0.666992 -15.999 2l-16 2l-16 -68l-16 5l16 67c-30 8 -55.833 21.667 -77.5 41
s-32.5 43.666 -32.5 72.999c0 22.667 6.66699 42.167 20 58.5s27.333 27.833 42 34.5l4 -3c-5.33301 -19.333 -8 -38 -8 -56c0 -16 2 -31.667 6 -47c8 -33.333 25.667 -57.666 53 -72.999l81 340c-20.667 20.667 -38.834 42.667 -54.501 66s-23.5 50.333 -23.5 81
c0 42.667 14.333 80.5 43 113.5s65.334 51.167 110.001 54.5l17 70l15 -5l-15 -65c5.33301 0 10.666 -0.5 15.999 -1.5s10.666 -2.16699 15.999 -3.5l18 75l15 -5l-18 -75c20.667 -8.66699 38 -20.334 52 -35.001s21 -28.667 21 -42c0 -10 -5 -19.333 -15 -28
s-16.667 -13 -20 -13c-0.666992 0 -4.33398 10.333 -11.001 31c-6.66699 20 -18.334 37.667 -35.001 53l-63 -265c27.333 -24 53 -51.167 77 -81.5s36 -70.5 36 -120.5c0 -47.333 -18 -89.333 -54 -126s-85.667 -55 -149 -55z" />
    <glyph glyph-name="percent" unicode="%" horiz-adv-x="723" 
d="M30 634c0 43.333 14.667 79.833 44 109.5s67 44.5 113 44.5c44 0 81 -14.833 111 -44.5s45 -66.167 45 -109.5c0 -44.667 -15 -81.667 -45 -111s-67 -44 -111 -44c-46 0 -83.667 14.833 -113 44.5s-44 66.5 -44 110.5zM589 759l-429 -605l-18 18l428 602zM65 634
c0 -44 12.333 -77.833 37 -101.5s53 -35.5 85 -35.5c31.333 0 59.333 11.833 84 35.5s37 57.5 37 101.5c0 43.333 -12.333 76.833 -37 100.5s-52.667 35.5 -84 35.5c-32 0 -60.333 -11.833 -85 -35.5s-37 -57.167 -37 -100.5zM380 271c0 43.333 14.667 79.833 44 109.5
s67 44.5 113 44.5c44 0 81 -14.833 111 -44.5s45 -66.167 45 -109.5c0 -44.667 -15 -81.667 -45 -111s-67 -44 -111 -44c-46 0 -83.667 14.833 -113 44.5s-44 66.5 -44 110.5zM415 271c0 -44 12.333 -77.833 37 -101.5s53 -35.5 85 -35.5c31.333 0 59.333 11.833 84 35.5
s37 57.5 37 101.5c0 43.333 -12.333 76.833 -37 100.5s-52.667 35.5 -84 35.5c-32 0 -60.333 -11.833 -85 -35.5s-37 -57.167 -37 -100.5z" />
    <glyph glyph-name="ampersand" unicode="&#x26;" horiz-adv-x="510" 
d="M282 -17c-69.333 0 -126.333 20.335 -171 61.002s-67 92 -67 154c0 76.667 29.833 139.334 89.5 188.001s117.834 80 174.501 94c-48 3.33301 -93.5 16.666 -136.5 39.999s-64.5 62.666 -64.5 117.999c0 46 19.833 82.5 59.5 109.5s81.5 40.5 125.5 40.5
c49.333 0 87.166 -10.5 113.499 -31.5s43.5 -40.167 51.5 -57.5c1.33301 -2.66699 2 -5.33398 2 -8.00098c0 -7.33301 -4.33301 -13.333 -13 -18c-12.667 -7.33301 -23.667 -10.333 -33 -9c-6 22.667 -19.5 45.5 -40.5 68.5s-47.833 34.5 -80.5 34.5
c-40 0 -66.833 -13.5 -80.5 -40.5s-20.5 -54.833 -20.5 -83.5c0 -34.667 11.333 -67 34 -97s69.667 -49 141 -57l-2 -18c-72 -10.667 -129.167 -40.334 -171.5 -89.001s-63.5 -108.334 -63.5 -179.001c0 -52 12.167 -97.5 36.5 -136.5s63.5 -58.5 117.5 -58.5
c48.667 0 89.667 11.333 123 34s50 57 50 103c0 38 -12.667 71.167 -38 99.5s-56 42.5 -92 42.5c-26.667 0 -46.5 -7 -59.5 -21s-19.5 -30.667 -19.5 -50c0 -21.333 6.33301 -35.166 19 -41.499s25 -8.83301 37 -7.5c0.666992 -1.33301 1 -3 1 -5c0 -5.33301 -3 -11 -9 -17
c-8 -8 -19 -12 -33 -12c-15.333 0 -29.5 5.83301 -42.5 17.5s-19.5 29.5 -19.5 53.5c0 28.667 14.667 53.834 44 75.501s71 32.5 125 32.5c46 0 83.167 3.83301 111.5 11.5s46.833 22.167 55.5 43.5c7.33301 -0.666992 13.333 -4.5 18 -11.5s7 -14.5 7 -22.5
c0 -18 -15 -30.667 -45 -38c-18 -4.66699 -40.333 -7 -67 -7c-16 0 -34 1 -54 3c15.333 -6.66699 35 -21.667 59 -45s36 -55.333 36 -96c0 -35.333 -15.833 -72 -47.5 -110s-85.167 -57 -160.5 -57z" />
    <glyph glyph-name="quotesingle" unicode="'" horiz-adv-x="146" 
d="M101 768l-19 -227h-17l-20 227h56z" />
    <glyph glyph-name="parenleft" unicode="(" horiz-adv-x="283" 
d="M242 -20c-38 34 -79.5 85.668 -124.5 155.001s-67.5 152.333 -67.5 249c0 96 22.5 178.833 67.5 248.5s86.5 121.5 124.5 155.5l11 10h20l-12 -15c-26.667 -34 -57.5 -80.833 -92.5 -140.5s-52.5 -145.834 -52.5 -258.501s17.167 -198.667 51.5 -258
s65.5 -106.333 93.5 -141l12 -15h-20z" />
    <glyph glyph-name="parenright" unicode=")" horiz-adv-x="283" 
d="M41 788c38 -34 79.5 -85.834 124.5 -155.501s67.5 -152.5 67.5 -248.5c0 -96.667 -22.5 -179.667 -67.5 -249s-86.5 -121 -124.5 -155l-11 -10h-20l12 15c28 34.667 59.167 81.667 93.5 141s51.5 145.333 51.5 258s-17.5 198.834 -52.5 258.501
s-65.833 106.5 -92.5 140.5l-12 15h20z" />
    <glyph glyph-name="asterisk" unicode="*" horiz-adv-x="313" 
d="M231 563l-32 -18l-44 92l-41 -92l-31 18l57 84l-100 -10v36l98 -8l-56 82l32 18l41 -90l44 90l31 -18l-57 -82l100 8v-36l-102 9z" />
    <glyph glyph-name="plus" unicode="+" horiz-adv-x="315" 
d="M141 217v151h-121v33h121v150h33v-150h121v-33h-121v-151h-33z" />
    <glyph glyph-name="comma" unicode="," horiz-adv-x="139" 
d="M20 45c0 14 4.83301 25.833 14.5 35.5s21.5 14.5 35.5 14.5c13.333 0 25.166 -5.16699 35.499 -15.5s15.5 -24.166 15.5 -41.499c0 -20.667 -11.333 -47.5 -34 -80.5s-53.667 -57.833 -93 -74.5l-5 9c18.667 10 35.834 24 51.501 42s26.5 40 32.5 66
c-3.33301 -0.666992 -6.33301 -1 -9 -1c-11.333 0 -21 4 -29 12c-10 9.33301 -15 20.666 -15 33.999z" />
    <glyph glyph-name="hyphen" unicode="-" horiz-adv-x="270" 
d="M240 396v-28h-210v28h210z" />
    <glyph glyph-name="hyphen" unicode="&#xad;" horiz-adv-x="270" 
d="M240 396v-28h-210v28h210z" />
    <glyph glyph-name="period" unicode="." horiz-adv-x="139" 
d="M119 45c0 -13.333 -4.83301 -25 -14.5 -35s-21.167 -15 -34.5 -15c-14 0 -25.833 5 -35.5 15s-14.5 21.667 -14.5 35c0 14 4.83301 25.833 14.5 35.5s21.5 14.5 35.5 14.5c13.333 0 24.833 -4.83301 34.5 -14.5s14.5 -21.5 14.5 -35.5z" />
    <glyph glyph-name="slash" unicode="/" horiz-adv-x="512" 
d="M512 802l-484 -857l-28 17l483 854z" />
    <glyph glyph-name="zero" unicode="0" horiz-adv-x="816" 
d="M50 386c0 114.667 33.333 210.332 100 286.999s152.334 115 257.001 115c105.333 0 191.5 -38.167 258.5 -114.5s100.5 -172.166 100.5 -287.499c0 -116.667 -33.5 -213 -100.5 -289s-153.167 -114 -258.5 -114c-104.667 0 -190.334 38.167 -257.001 114.5
s-100 172.5 -100 288.5zM135 386.998c0 -112.667 21 -204.667 63 -276s111.667 -107 209 -107c98 0 168.167 35.5 210.5 106.5s63.5 162.833 63.5 275.5c0 112 -21.167 203.5 -63.5 274.5s-112.5 106.5 -210.5 106.5c-97.333 0 -167 -35.667 -209 -107
s-63 -162.333 -63 -273z" />
    <glyph glyph-name="one" unicode="1" horiz-adv-x="209" 
d="M139 768v-768h-63v691c0 6.66699 -0.666992 11 -2 13s-5.33301 3 -12 3h-52v7l123 54h6z" />
    <glyph glyph-name="two" unicode="2" horiz-adv-x="551" 
d="M173 33c-32 0 -61.334 -6 -88.001 -18l-62 -29l-3 2c4 52 23.833 104.333 59.5 157s100.5 115.334 194.5 188.001c71.333 55.333 117.166 102.666 137.499 141.999s30.5 80.666 30.5 123.999c0 58 -16.333 100.5 -49 127.5s-70.667 40.5 -114 40.5
c-58.667 0 -99.334 -17.167 -122.001 -51.5s-34 -70.5 -34 -108.5c0 -30 5 -52.833 15 -68.5s25.333 -23.5 46 -23.5c16.667 0 31 4.16699 43 12.5s21 18.833 27 31.5c8 -7.33301 12 -15 12 -23c0 -8.66699 -5.33301 -17.667 -16 -27c-19.333 -18 -43 -27 -71 -27
c-34 0 -63 11.5 -87 34.5s-36 52.833 -36 89.5c0 53.333 22.333 96.5 67 129.5s96.667 49.5 156 49.5c73.333 0 132.833 -21 178.5 -63s68.5 -84.667 68.5 -128c0 -51.333 -16.833 -98.166 -50.5 -140.499s-94.167 -93.166 -181.5 -152.499
c-59.333 -40 -110.833 -83.833 -154.5 -131.5s-72.167 -96.5 -85.5 -146.5c16.667 18.667 37.834 33.5 63.501 44.5s52.834 16.5 81.501 16.5c32.667 0 62.334 -6 89.001 -18c26.667 -12.667 62.667 -19 108 -19c27.333 0 54 4.66699 80 14s44.333 23.333 55 42
c6.66699 -6.66699 10 -14.667 10 -24c0 -12.667 -7 -27.334 -21 -44.001c-24 -29.333 -65 -44 -123 -44c-40 0 -77.833 7 -113.5 21s-72.5 21 -110.5 21z" />
    <glyph glyph-name="three" unicode="3" horiz-adv-x="555" 
d="M271 -17c-67.333 0 -124.331 20.001 -170.998 60.001s-70 81 -70 123c0 34 8.66699 59.167 26 75.5s34.333 24.5 51 24.5c8 0 15.333 -1.83301 22 -5.5s10.334 -8.16699 11.001 -13.5c-12.667 -6.66699 -21.834 -15.834 -27.501 -27.501s-8.5 -28.167 -8.5 -49.5
c0 -34 11.333 -70.167 34 -108.5s67 -57.5 133 -57.5s111.5 22 136.5 66s37.5 91 37.5 141c0 62.667 -19.833 114.5 -59.5 155.5s-86.5 61.5 -140.5 61.5l-3 23c56 0 96.167 14.833 120.5 44.5s36.5 67.5 36.5 113.5c0 34 -9.66699 69.167 -29 105.5s-54 54.5 -104 54.5
c-38.667 0 -69.667 -11.833 -93 -35.5s-35 -47.167 -35 -70.5c0 -38.667 11.667 -61.667 35 -69c9.33301 -3.33301 18.666 -5 27.999 -5c13.333 0 26 3.33301 38 10c0.666992 -10.667 -3.33301 -22.5 -12 -35.5s-27.334 -19.5 -56.001 -19.5c-16 0 -34.667 8 -56 24
s-32 40.333 -32 73c0 38 17.833 72 53.5 102s80.167 45 133.5 45c56.667 0 105.667 -17 147 -51s62 -76 62 -126c0 -39.333 -18.5 -75.5 -55.5 -108.5s-73.5 -53.833 -109.5 -62.5c50 -10 99.333 -36.167 148 -78.5s73 -90.833 73 -145.5c0 -62 -24 -116.333 -72 -163
s-112 -70 -192 -70z" />
    <glyph glyph-name="four" unicode="4" horiz-adv-x="604" 
d="M406 0v188h-396v35l440 545h19v-531h116v-49h-116v-188h-63zM406 237v423l-337 -423h337z" />
    <glyph glyph-name="five" unicode="5" horiz-adv-x="598" 
d="M261 -17c-64.667 0 -119.165 18.168 -163.498 54.501s-66.5 77.833 -66.5 124.5c0 25.333 7.33301 47.166 22 65.499s32.334 27.5 53.001 27.5c10.667 0 19.167 -2.33301 25.5 -7s10.833 -10.667 13.5 -18c-12.667 -4.66699 -22.667 -13.334 -30 -26.001
s-11 -28.334 -11 -47.001c0 -42 12.667 -78 38 -108s65 -45 119 -45c52.667 0 100.667 19.833 144 59.5s65 100.834 65 183.501c0 67.333 -14.167 120.333 -42.5 159s-73.833 58 -136.5 58c-48.667 0 -87.834 -10.5 -117.501 -31.5s-53.834 -40.5 -72.501 -58.5h-19l70 394
h395l-10 -53h-362l-51 -295c18 18.667 42 35.167 72 49.5s65.333 21.5 106 21.5c67.333 0 127.166 -21.833 179.499 -65.5s78.5 -103.167 78.5 -178.5c0 -65.333 -29.833 -125.666 -89.5 -180.999s-129.5 -83 -209.5 -83z" />
    <glyph glyph-name="six" unicode="6" horiz-adv-x="700" 
d="M444 792c26.667 0 51.5 -3.33301 74.5 -10s43.5 -16.334 61.5 -29.001l-12 -19c-11.333 8.66699 -27.166 16.334 -47.499 23.001s-44.166 10 -71.499 10c-104.667 0 -183.167 -41.833 -235.5 -125.5s-78.5 -177.167 -78.5 -280.5c0 -93.333 18.5 -176.166 55.5 -248.499
s97.167 -108.5 180.5 -108.5c60 0 108.167 24.5 144.5 73.5s54.5 104.5 54.5 166.5c0 57.333 -11.667 109.333 -35 156s-67 70 -131 70c-44 0 -76.833 -13.833 -98.5 -41.5s-36.834 -53.167 -45.501 -76.5c-12.667 0 -20.334 7.66699 -23.001 23c-0.666992 4 -1 8 -1 12
c0 10 3 19.667 9 29c19.333 27.333 43.833 47 73.5 59s58.5 18 86.5 18c60.667 0 117.834 -22 171.501 -66s80.5 -107.333 80.5 -190c0 -81.333 -32 -144 -96 -188s-127.333 -66 -190 -66c-84.667 0 -159.334 35.167 -224.001 105.5s-97 162.166 -97 275.499
s38.167 213 114.5 299s169.5 129 279.5 129z" />
    <glyph glyph-name="seven" unicode="7" horiz-adv-x="646" 
d="M303 0l-63 0.000976562v82c0 142 30 267.333 90 376s127.667 196 203 262h-318c-32 0 -58.333 -4.83301 -79 -14.5s-40 -28.5 -58 -56.5l-8 4l33 115h503l8 -18c-84.667 -77.333 -157.667 -164.333 -219 -261s-92 -239.334 -92 -428.001v-61z" />
    <glyph glyph-name="eight" unicode="8" horiz-adv-x="628" 
d="M314 -17c-92 0 -161.504 22.665 -208.504 67.998s-70.5 97 -70.5 155c0 69.333 25.333 120.333 76 153s92.334 52.334 125.001 59.001c-41.333 7.33301 -78.166 28 -110.499 62s-48.5 73.667 -48.5 119c0 62.667 25 109.834 75 141.501s104 47.5 162 47.5
s112 -15.667 162 -47s75 -78.666 75 -141.999c0 -45.333 -16.167 -85 -48.5 -119s-69.166 -54.667 -110.499 -62c32.667 -6.66699 74.334 -26.334 125.001 -59.001s76 -83.667 76 -153c0 -58 -23.5 -109.667 -70.5 -155s-116.5 -68 -208.5 -68zM313.996 766.998
c-54 0 -92.667 -16.167 -116 -48.5s-35 -72.166 -35 -119.499c0 -54 12.167 -96.167 36.5 -126.5s62.5 -45.5 114.5 -45.5s90.167 15.167 114.5 45.5s36.5 72.5 36.5 126.5c0 47.333 -11.667 87.166 -35 119.499s-62 48.5 -116 48.5zM313.996 405.998
c-55.333 0 -101.333 -16.5 -138 -49.5s-55 -83.167 -55 -150.5c0 -69.333 18.667 -120.666 56 -153.999s83 -50 137 -50s99.667 16.667 137 50s56 84.666 56 153.999c0 67.333 -18.333 117.5 -55 150.5s-82.667 49.5 -138 49.5z" />
    <glyph glyph-name="nine" unicode="9" horiz-adv-x="599" 
d="M268 -16l-14.999 19.001c76 66.667 133.667 133.667 173 201s59 152 59 254c0 92 -16.5 166.5 -49.5 223.5s-83.167 85.5 -150.5 85.5c-58 0 -102.333 -20.167 -133 -60.5s-46 -93.5 -46 -159.5c0 -57.333 11 -107.333 33 -150s62.333 -64 121 -64
c50 0 83.167 14.5 99.5 43.5s27.5 56.833 33.5 83.5c10.667 0 19 -8 25 -24c1.33301 -4 2 -8.33301 2 -13c0 -13.333 -5.33301 -28 -16 -44c-14 -20.667 -34.5 -37.334 -61.5 -50.001s-54.5 -19 -82.5 -19c-46.667 0 -98.334 19.167 -155.001 57.5s-85 97.833 -85 178.5
c0 75.333 28.833 134.5 86.5 177.5s117.167 64.5 178.5 64.5c73.333 0 139 -29.167 197 -87.5s87 -139.166 87 -242.499c0 -94.667 -31 -182.334 -93 -263.001s-131.333 -151 -208 -211z" />
    <glyph glyph-name="colon" unicode=":" horiz-adv-x="139" 
d="M119 375c0 -13.333 -4.83301 -25 -14.5 -35s-21.167 -15 -34.5 -15c-14 0 -25.833 5 -35.5 15s-14.5 21.667 -14.5 35c0 14 4.83301 25.833 14.5 35.5s21.5 14.5 35.5 14.5c13.333 0 24.833 -4.83301 34.5 -14.5s14.5 -21.5 14.5 -35.5zM119 45
c0 -13.333 -4.83301 -25 -14.5 -35s-21.167 -15 -34.5 -15c-14 0 -25.833 5 -35.5 15s-14.5 21.667 -14.5 35c0 14 4.83301 25.833 14.5 35.5s21.5 14.5 35.5 14.5c13.333 0 24.833 -4.83301 34.5 -14.5s14.5 -21.5 14.5 -35.5z" />
    <glyph glyph-name="semicolon" unicode=";" horiz-adv-x="139" 
d="M119 375c0 -13.333 -4.83301 -25 -14.5 -35s-21.167 -15 -34.5 -15c-14 0 -25.833 5 -35.5 15s-14.5 21.667 -14.5 35c0 14 4.83301 25.833 14.5 35.5s21.5 14.5 35.5 14.5c13.333 0 24.833 -4.83301 34.5 -14.5s14.5 -21.5 14.5 -35.5zM20 45
c0 14 4.83301 25.833 14.5 35.5s21.5 14.5 35.5 14.5c13.333 0 25.166 -5.16699 35.499 -15.5s15.5 -24.166 15.5 -41.499c0 -20.667 -11.333 -47.5 -34 -80.5s-53.667 -57.833 -93 -74.5l-5 9c18.667 10 35.834 24 51.501 42s26.5 40 32.5 66
c-3.33301 -0.666992 -6.33301 -1 -9 -1c-11.333 0 -21 4 -29 12c-10 9.33301 -15 20.666 -15 33.999z" />
    <glyph glyph-name="less" unicode="&#x3c;" horiz-adv-x="339" 
d="M299 237l-279 147v19l279 148v-32l-237 -126l237 -124v-32z" />
    <glyph glyph-name="equal" unicode="=" horiz-adv-x="315" 
d="M20 464h275v-33h-275v33zM20 384h275v-33h-275v33z" />
    <glyph glyph-name="greater" unicode="&#x3e;" horiz-adv-x="339" 
d="M40 237v32l237 124l-237 126v32l279 -148v-19z" />
    <glyph glyph-name="question" unicode="?" horiz-adv-x="537" 
d="M261 767c-69.333 0 -113.667 -17.667 -133 -53s-29 -65.333 -29 -90c0 -23.333 4.16699 -39.5 12.5 -48.5s18.833 -15.5 31.5 -19.5c-4 -10 -9 -16.667 -15 -20s-13.333 -5 -22 -5c-16 0 -31 7.16699 -45 21.5s-21 34.5 -21 60.5c0 43.333 21.5 83.333 64.5 120
s95.5 55 157.5 55c56 0 105.833 -17.667 149.5 -53s65.5 -80.666 65.5 -135.999c0 -67.333 -36 -128 -108 -182c-72 -54.667 -108 -117.334 -108 -188.001v-38h-20v50c0 79.333 28.667 139.333 86 180c56.667 40 85 100.667 85 182c0 40.667 -12 78.167 -36 112.5
s-62.333 51.5 -115 51.5zM302.999 45c0 -13.333 -4.83301 -25 -14.5 -35s-21.167 -15 -34.5 -15c-14 0 -25.833 5 -35.5 15s-14.5 21.667 -14.5 35c0 14 4.83301 25.833 14.5 35.5s21.5 14.5 35.5 14.5c13.333 0 24.833 -4.83301 34.5 -14.5s14.5 -21.5 14.5 -35.5z" />
    <glyph glyph-name="at" unicode="@" horiz-adv-x="1048" 
d="M415 310l192 20l-101 206zM697 -43c-41.333 -21.333 -75.167 -34.8359 -101.5 -40.5029s-53.5 -8.5 -81.5 -8.5c-151.333 0 -264.833 47.333 -340.5 142s-113.5 198.334 -113.5 311.001c0 122 41.167 227.667 123.5 317s196.5 134 342.5 134
c158.667 0 276.667 -50.333 354 -151s116 -206 116 -316c0 -61.333 -15.667 -119.5 -47 -174.5s-72.666 -82.5 -123.999 -82.5c-48.667 0 -82.834 11.333 -102.501 34s-42.167 59.334 -67.5 110.001l-32 65l-221 -19l-48 -119h-45l175 423
c-6.66699 12.667 -14 22.167 -22 28.5s-18.667 9.5 -32 9.5v18h85l203 -406h-1c16 -32.667 31.333 -59.5 46 -80.5s39 -31.5 73 -31.5c34.667 0 64.167 21.833 88.5 65.5s36.5 98.5 36.5 164.5c0 120.667 -39.5 223.334 -118.5 308.001s-184.833 127 -317.5 127
c-129.333 0 -233.333 -40 -312 -120s-118 -181.333 -118 -304c0 -112.667 36.333 -212.5 109 -299.5s176 -130.5 310 -130.5c38 0 71.5 4.5 100.5 13.5s53.833 18.833 74.5 29.5z" />
    <glyph glyph-name="A" unicode="A" horiz-adv-x="783" 
d="M137 203l423 57l-220 443zM689 0l-113 228l-450 -52l-72 -176h-34l304 736c-2.66699 4.66699 -6 8.16699 -10 10.5s-8.66699 4.5 -14 6.5l-3 1v18l84 -6l382 -766h-74z" />
    <glyph glyph-name="B" unicode="B" horiz-adv-x="558" 
d="M234 -16c-23.333 0 -46.999 2.66797 -70.999 8.00098c-24 6 -46.333 9 -67 9c-3.33301 0 -6.33301 -0.166992 -9 -0.5s-5.33398 -0.833008 -8.00098 -1.5l-2 1v768l2 1c5.33301 -1.33301 10 -2.33301 14 -3s8.66699 -1 14 -1c23.333 0 43 3.66699 59 11s38.333 11 67 11
c38 0 77.667 -12.333 119 -37s62 -61.334 62 -110.001c0 -34.667 -14 -64 -42 -88s-57.667 -40.333 -89 -49c51.333 1.33301 103.333 -22 156 -70s79 -109.333 79 -184c0 -73.333 -27 -135.833 -81 -187.5s-121.667 -77.5 -203 -77.5zM233.001 766.001
c-20 0 -37.499 -2.5 -52.499 -7.5s-27.833 -11.833 -38.5 -20.5v-705c10 -8.66699 22.167 -15.5 36.5 -20.5s32.833 -7.5 55.5 -7.5c64 0 113.5 22.833 148.5 68.5s52.5 104.167 52.5 175.5c0 79.333 -16 138.5 -48 177.5s-71.333 58.5 -118 58.5c-11.333 0 -21 -1 -29 -3
s-15.667 -4.33301 -23 -7l2 23c28 4.66699 55.333 19 82 43s40 54 40 90c0 42 -9.33301 75 -28 99s-45.334 36 -80.001 36z" />
    <glyph glyph-name="C" unicode="C" horiz-adv-x="789" 
d="M749 80c-24.667 -22 -59.6689 -43.667 -105.002 -65s-99.333 -32 -162 -32c-110.667 0 -210.334 35.667 -299.001 107s-133 168 -133 290c0 126.667 46.167 227 138.5 301s192.5 111 300.5 111c56.667 0 106.334 -8.5 149.001 -25.5s75.334 -33.833 98.001 -50.5l-27 -52
c-25.333 28 -55.666 52.5 -90.999 73.5s-82 31.5 -140 31.5c-95.333 0.666992 -177 -32 -245 -98s-102 -155 -102 -267c0 -140 40 -239 120 -297s164 -87 252 -87c57.333 0 106.833 9 148.5 27s71.167 33 88.5 45z" />
    <glyph glyph-name="D" unicode="D" horiz-adv-x="798" 
d="M748 385c0 -94 -37.665 -184.999 -112.998 -272.999s-182 -132 -320 -132c-50 0 -96.167 7.16699 -138.5 21.5s-77.833 35.166 -106.5 62.499v704l2 1c5.33301 -1.33301 10.166 -2.33301 14.499 -3s9.83301 -1 16.5 -1c32 0 63 4.66699 93 14
c29.333 8.66699 69.666 13 120.999 13c132.667 0 237.667 -41.667 315 -125s116 -177.333 116 -282zM663.002 385.001c0 107.333 -31.167 198.002 -93.5 272.002s-146.5 111 -252.5 111c-46 0 -84.333 -4.33301 -115 -13s-53 -19.334 -67 -32.001v-657
c10.667 -12.667 30.5 -26.334 59.5 -41.001s69.167 -22 120.5 -22c116 0 203 40.667 261 122s87 168 87 260z" />
    <glyph glyph-name="E" unicode="E" horiz-adv-x="535" 
d="M477 0h-407v768h378l22 -59l-5 -3c-18.667 18.667 -36.5 29.5 -53.5 32.5s-44.5 4.5 -82.5 4.5h-194v-270h231c10.667 0 18.667 0.5 24 1.5s11.333 3.5 18 7.5l2 -1v-41l-2 -1c-6.66699 4 -12.667 6.5 -18 7.5s-13.333 1.5 -24 1.5h-231v-423h199
c36 0 69.667 2.5 101 7.5s56.333 16.5 75 34.5l5 -4z" />
    <glyph glyph-name="F" unicode="F" horiz-adv-x="480" 
d="M135 0l-65 0.000976562v768h358l26 -67l-5 -3c-18.667 21.333 -37.167 34.166 -55.5 38.499s-46.5 6.5 -84.5 6.5h-174v-280h192c10.667 0 18.667 0.5 24 1.5s11.333 3.5 18 7.5l2 -1v-41l-2 -1c-6.66699 4 -12.667 6.5 -18 7.5s-13.333 1.5 -24 1.5h-192v-438z" />
    <glyph glyph-name="G" unicode="G" horiz-adv-x="818" 
d="M690 84l-0.000976562 292.001h58v-294c-28 -26.667 -63.5 -49.834 -106.5 -69.501s-97.5 -29.5 -163.5 -29.5c-104.667 0 -202.167 35.667 -292.5 107s-135.5 168 -135.5 290c0 128 48.5 228.667 145.5 302s197.833 110 302.5 110c52 0 98.833 -8.5 140.5 -25.5
s74.167 -33.833 97.5 -50.5l-27 -52c-25.333 28 -56.166 52.5 -92.499 73.5s-82.5 31.5 -138.5 31.5c-84 0 -162.833 -30 -236.5 -90s-110.5 -152 -110.5 -276c0 -140 38.5 -239 115.5 -297s154.167 -87 231.5 -87c60 0 106.833 7.33301 140.5 22s57.5 29 71.5 43z" />
    <glyph glyph-name="H" unicode="H" 
d="M70 0v768h65v-274h392v274h65v-768h-65v470h-392v-470h-65z" />
    <glyph glyph-name="I" unicode="I" horiz-adv-x="203" 
d="M133 768v-768h-63v768h63z" />
    <glyph glyph-name="J" unicode="J" horiz-adv-x="427" 
d="M358 193c0 -70.667 -14.667 -123.999 -44 -159.999s-73 -54 -131 -54c-48 0 -89.5 15.167 -124.5 45.5s-52.5 66.5 -52.5 108.5c0 26.667 8 49.334 24 68.001s37.667 28 65 28c10.667 0 20 -2.5 28 -7.5s14.333 -10.833 19 -17.5l-1 -2
c-22.667 -2.66699 -41.5 -12.334 -56.5 -29.001s-22.5 -36.334 -22.5 -59.001c0 -34.667 11.667 -62.667 35 -84s52 -32 86 -32c42 0 71.167 16 87.5 48s24.5 76 24.5 132v590h63v-575z" />
    <glyph glyph-name="K" unicode="K" horiz-adv-x="473" 
d="M405 -8c-28.667 0 -54.8311 13.165 -78.498 39.498s-35.5 76.833 -35.5 151.5v109c0 86.667 -11.833 143.667 -35.5 171s-46.834 41 -69.501 41c-10 0 -19.333 -1.33301 -28 -4s-16.334 -7 -23.001 -13v-487h-65v768h65v-257l196 257h43v-5l-190 -243
c6 1.33301 12 2 18 2c33.333 0 66 -16 98 -48c37.333 -37.333 56 -99.666 56 -186.999v-86c0 -74 8.16699 -123.667 24.5 -149s31.833 -38 46.5 -38c7.33301 0 14.666 1.33301 21.999 4s15 8 23 16l6 -6c-11.333 -13.333 -22.666 -22.666 -33.999 -27.999s-24.333 -8 -39 -8
z" />
    <glyph glyph-name="L" unicode="L" horiz-adv-x="471" 
d="M70 0l0.000976562 768h65v-743h148c49.333 0 86.666 4.33301 111.999 13s45.333 21.667 60 39l6 -4l-44 -73h-347z" />
    <glyph glyph-name="M" unicode="M" horiz-adv-x="816" 
d="M70 0v768h34l309 -463l309 463h24v-768h-65v649l-284 -424h-4l-287 426v-651h-36z" />
    <glyph glyph-name="N" unicode="N" horiz-adv-x="594" 
d="M70 0v768h37l381 -625v625h36v-768h-19l-399 648v-648h-36z" />
    <glyph glyph-name="O" unicode="O" horiz-adv-x="956" 
d="M51 386c-0.666992 114.667 44.167 211 134.5 289s187.833 117 292.5 117c105.333 0 203.166 -38.833 293.499 -116.5s135.5 -174.167 135.5 -289.5c0 -116.667 -45.167 -213.667 -135.5 -291s-188.166 -116 -293.499 -116c-104.667 0 -202 38.833 -292 116.5
s-135 174.5 -135 290.5zM136.001 387c0 -112.667 32.668 -205.167 98.001 -277.5s146.666 -108.5 243.999 -108.5c98 0 179.833 36 245.5 108s98.5 164.333 98.5 277c0 112 -32.833 204 -98.5 276s-147.5 108 -245.5 108c-97.333 0 -178.833 -36.167 -244.5 -108.5
s-98.167 -163.833 -97.5 -274.5z" />
    <glyph glyph-name="P" unicode="P" horiz-adv-x="475" 
d="M135 0l-64.999 0.00195312v768l2 1c5.33301 -1.33301 10.166 -2.33301 14.499 -3s9.16602 -1 14.499 -1c24.667 0 46 3.66699 64 11s43.333 11 76 11c52 0 102.333 -19.5 151 -58.5s73 -91.5 73 -157.5c0 -78 -27.667 -134 -83 -168s-104.333 -51 -147 -51
c-14.667 0 -27.167 1.16699 -37.5 3.5s-17.5 4.83301 -21.5 7.5l5 12c4.66699 -1.33301 11 -3 19 -5s19.667 -3 35 -3c39.333 0 74.5 17.667 105.5 53s46.5 85.666 46.5 150.999c0 56 -14.833 102.667 -44.5 140s-66.5 56 -110.5 56
c-21.333 0 -40.166 -2.83301 -56.499 -8.5s-29.833 -11.834 -40.5 -18.501v-740z" />
    <glyph glyph-name="Q" unicode="Q" horiz-adv-x="956" 
d="M136 387c0 -112.667 32.668 -205.167 98.001 -277.5s146.666 -108.5 243.999 -108.5c98 0 179.833 36 245.5 108s98.5 164.333 98.5 277c0 112 -32.833 204 -98.5 276s-147.5 108 -245.5 108c-97.333 0 -178.833 -36.167 -244.5 -108.5s-98.167 -163.833 -97.5 -274.5z
M658.001 -206c-64.667 0 -117.663 16.334 -158.996 49.001c-42 32.667 -96.667 49 -164 49c-30 0 -55 -6.16699 -75 -18.5s-30 -32.833 -30 -61.5h-7c-0.666992 5.33301 -1 10.333 -1 15c0 27.333 11.333 49.666 34 66.999c26 20 57 30 93 30c58 0 110 -13 156 -39
c45.333 -26 92.666 -39 141.999 -39c25.333 0 47.833 6.83301 67.5 20.5s29.5 35.5 29.5 65.5c0 26 -6.66699 47 -20 63s-29 27.333 -47 34c-30.667 -16 -63 -28.333 -97 -37s-68 -13 -102 -13c-104.667 0 -202 38.833 -292 116.5s-135 174.5 -135 290.5
c-0.666992 114.667 44.166 211 134.499 289s187.833 117 292.5 117c105.333 0 203.166 -38.833 293.499 -116.5s135.5 -174.167 135.5 -289.5c0 -73.333 -19.5 -140 -58.5 -200s-87.833 -107.667 -146.5 -143c27.333 -10 50.833 -27.167 70.5 -51.5s29.5 -49.833 29.5 -76.5
c0 -40.667 -15.833 -71 -47.5 -91s-63.834 -30 -96.501 -30z" />
    <glyph glyph-name="R" unicode="R" horiz-adv-x="521" 
d="M455 -8c-32 0 -59.8369 17.168 -83.5039 51.501s-35.5 85.166 -35.5 152.499v78c0 85.333 -14.833 141.833 -44.5 169.5s-55.5 41.5 -77.5 41.5c-6.66699 0 -13 -0.666992 -19 -2s-12.333 -4 -19 -8l2 23c34.667 6 67.167 20.667 97.5 44s45.5 57.666 45.5 102.999
c0 36.667 -9.83301 66.334 -29.5 89.001s-45.167 34 -76.5 34c-17.333 0 -32.166 -2.5 -44.499 -7.5s-24.166 -11.167 -35.499 -18.5v-742h-65v768l2 1c5.33301 -1.33301 10 -2.33301 14 -3s8.66699 -1 14 -1c22.667 0 41.334 3.66699 56.001 11s36.334 11 65.001 11
c45.333 0 85.5 -13.667 120.5 -41s52.5 -61 52.5 -101c0 -41.333 -21.333 -74.833 -64 -100.5s-73.334 -40.834 -92.001 -45.501c29.333 -2.66699 63.833 -20 103.5 -52s59.5 -89.667 59.5 -173v-66c0 -77.333 7.33301 -129 22 -155s31.334 -39 50.001 -39
c8 0 15.833 1.33301 23.5 4s15.5 8 23.5 16l6 -6c-8.66699 -11.333 -19 -20.166 -31 -26.499s-25.333 -9.5 -40 -9.5z" />
    <glyph glyph-name="S" unicode="S" horiz-adv-x="518" 
d="M372 789c24 0 47.166 -4.16797 69.499 -12.501s44.833 -22.5 67.5 -42.5l-35 -46c-12.667 27.333 -28 47.666 -46 60.999s-37.667 20 -59 20c-34 0 -60.167 -13.333 -78.5 -40s-27.5 -63 -27.5 -109c0 -74 22.333 -141.333 67 -202c44.667 -61.333 67 -138.333 67 -231
c0 -60 -19.667 -109.667 -59 -149s-90.666 -59 -153.999 -59c-41.333 0 -80.666 13.5 -117.999 40.5s-56 59.5 -56 97.5c0 22.667 8.33301 41.834 25 57.501s32 27.5 46 35.5l3 -3c-8.66699 -22.667 -13 -46.667 -13 -72c0 -20 2.66699 -40.667 8 -62
c12 -49.333 47.333 -74 106 -74c49.333 0 85.666 14 108.999 42s35 69.333 35 124c0 84.667 -22 158.334 -66 221.001s-66 132.667 -66 210c0 51.333 17.333 96.333 52 135s75.667 58 123 58z" />
    <glyph glyph-name="T" unicode="T" horiz-adv-x="545" 
d="M310 744h-6v-744h-63v744h-6c-31.333 0 -68.333 -2 -111 -6s-72.667 -12 -90 -24l-4 3l25 51h435l25 -51l-4 -3c-17.333 12 -47.333 20 -90 24s-79.667 6 -111 6z" />
    <glyph glyph-name="U" unicode="U" horiz-adv-x="620" 
d="M311 -21c-50.667 0 -92.3301 9 -124.997 27s-58.334 42 -77.001 72s-31.5 64.833 -38.5 104.5s-10.5 81.167 -10.5 124.5v461h65v-482c0 -99.333 15.167 -171.333 45.5 -216s80.166 -67 149.499 -67c78 0 132.333 27.333 163 82c31.333 55.333 47 125.333 47 210v473h30
v-464c0 -91.333 -17.333 -168.333 -52 -231s-100.334 -94 -197.001 -94z" />
    <glyph glyph-name="V" unicode="V" horiz-adv-x="676" 
d="M327 0l-317 768h74l273 -670l275 670h34l-317 -768h-22z" />
    <glyph glyph-name="W" unicode="W" horiz-adv-x="916" 
d="M327 0l-317 768h72l274 -673l86 208l-192 465h69l159 -390l160 390h34l-177 -430l100 -246l277 676h34l-317 -768h-22l-109 264l-109 -264h-22z" />
    <glyph glyph-name="X" unicode="X" horiz-adv-x="697" 
d="M40 0l292 397l-249 371h74l218 -325l236 325h40l-258 -352l279 -416h-74l-248 369l-270 -369h-40z" />
    <glyph glyph-name="Y" unicode="Y" horiz-adv-x="592" 
d="M265 0v380l-235 388h71l213 -354l211 354h37l-233 -386v-382h-64z" />
    <glyph glyph-name="Z" unicode="Z" horiz-adv-x="607" 
d="M544 0l-510 -0.000976562l-4 5l459 738h-270c-39.333 0 -67 -1.5 -83 -4.5s-33.333 -13.5 -52 -31.5l-6 2l22 59h463l4 -5l-452 -738h285c42.667 0 79.167 3.33301 109.5 10s52.833 17.334 67.5 32.001l5 -4z" />
    <glyph glyph-name="bracketleft" unicode="[" horiz-adv-x="278" 
d="M80 -30v828h168v-35h-110v-758h110v-35h-168z" />
    <glyph glyph-name="backslash" unicode="\" horiz-adv-x="278" 
d="M277 -36l-31 -10l-246 853l31 7z" />
    <glyph glyph-name="bracketright" unicode="]" horiz-adv-x="278" 
d="M198 -30h-168v35h110v758h-110v35h168v-828z" />
    <glyph glyph-name="asciicircum" unicode="^" horiz-adv-x="500" 
d="M450 541l-195 178l-195 -178l-13 13l186 214h44l186 -214z" />
    <glyph glyph-name="underscore" unicode="_" horiz-adv-x="410" 
d="M400 -54v-28h-390v28h390z" />
    <glyph glyph-name="grave" unicode="`" horiz-adv-x="500" 
d="M166 903l31 42l4 -1l112 -117l-7 -10z" />
    <glyph glyph-name="a" unicode="a" horiz-adv-x="783" 
d="M137 203l423 57l-220 443zM689 0l-113 228l-450 -52l-72 -176h-34l304 736c-2.66699 4.66699 -6 8.16699 -10 10.5s-8.66699 4.5 -14 6.5l-3 1v18l84 -6l382 -766h-74z" />
    <glyph glyph-name="b" unicode="b" horiz-adv-x="558" 
d="M234 -16c-23.333 0 -46.999 2.66797 -70.999 8.00098c-24 6 -46.333 9 -67 9c-3.33301 0 -6.33301 -0.166992 -9 -0.5s-5.33398 -0.833008 -8.00098 -1.5l-2 1v768l2 1c5.33301 -1.33301 10 -2.33301 14 -3s8.66699 -1 14 -1c23.333 0 43 3.66699 59 11s38.333 11 67 11
c38 0 77.667 -12.333 119 -37s62 -61.334 62 -110.001c0 -34.667 -14 -64 -42 -88s-57.667 -40.333 -89 -49c51.333 1.33301 103.333 -22 156 -70s79 -109.333 79 -184c0 -73.333 -27 -135.833 -81 -187.5s-121.667 -77.5 -203 -77.5zM233.001 766.001
c-20 0 -37.499 -2.5 -52.499 -7.5s-27.833 -11.833 -38.5 -20.5v-705c10 -8.66699 22.167 -15.5 36.5 -20.5s32.833 -7.5 55.5 -7.5c64 0 113.5 22.833 148.5 68.5s52.5 104.167 52.5 175.5c0 79.333 -16 138.5 -48 177.5s-71.333 58.5 -118 58.5c-11.333 0 -21 -1 -29 -3
s-15.667 -4.33301 -23 -7l2 23c28 4.66699 55.333 19 82 43s40 54 40 90c0 42 -9.33301 75 -28 99s-45.334 36 -80.001 36z" />
    <glyph glyph-name="c" unicode="c" horiz-adv-x="789" 
d="M749 80c-24.667 -22 -59.6689 -43.667 -105.002 -65s-99.333 -32 -162 -32c-110.667 0 -210.334 35.667 -299.001 107s-133 168 -133 290c0 126.667 46.167 227 138.5 301s192.5 111 300.5 111c56.667 0 106.334 -8.5 149.001 -25.5s75.334 -33.833 98.001 -50.5l-27 -52
c-25.333 28 -55.666 52.5 -90.999 73.5s-82 31.5 -140 31.5c-95.333 0.666992 -177 -32 -245 -98s-102 -155 -102 -267c0 -140 40 -239 120 -297s164 -87 252 -87c57.333 0 106.833 9 148.5 27s71.167 33 88.5 45z" />
    <glyph glyph-name="d" unicode="d" horiz-adv-x="798" 
d="M748 385c0 -94 -37.665 -184.999 -112.998 -272.999s-182 -132 -320 -132c-50 0 -96.167 7.16699 -138.5 21.5s-77.833 35.166 -106.5 62.499v704l2 1c5.33301 -1.33301 10.166 -2.33301 14.499 -3s9.83301 -1 16.5 -1c32 0 63 4.66699 93 14
c29.333 8.66699 69.666 13 120.999 13c132.667 0 237.667 -41.667 315 -125s116 -177.333 116 -282zM663.002 385.001c0 107.333 -31.167 198.002 -93.5 272.002s-146.5 111 -252.5 111c-46 0 -84.333 -4.33301 -115 -13s-53 -19.334 -67 -32.001v-657
c10.667 -12.667 30.5 -26.334 59.5 -41.001s69.167 -22 120.5 -22c116 0 203 40.667 261 122s87 168 87 260z" />
    <glyph glyph-name="e" unicode="e" horiz-adv-x="535" 
d="M477 0h-407v768h378l22 -59l-5 -3c-18.667 18.667 -36.5 29.5 -53.5 32.5s-44.5 4.5 -82.5 4.5h-194v-270h231c10.667 0 18.667 0.5 24 1.5s11.333 3.5 18 7.5l2 -1v-41l-2 -1c-6.66699 4 -12.667 6.5 -18 7.5s-13.333 1.5 -24 1.5h-231v-423h199
c36 0 69.667 2.5 101 7.5s56.333 16.5 75 34.5l5 -4z" />
    <glyph glyph-name="f" unicode="f" horiz-adv-x="480" 
d="M135 0l-65 0.000976562v768h358l26 -67l-5 -3c-18.667 21.333 -37.167 34.166 -55.5 38.499s-46.5 6.5 -84.5 6.5h-174v-280h192c10.667 0 18.667 0.5 24 1.5s11.333 3.5 18 7.5l2 -1v-41l-2 -1c-6.66699 4 -12.667 6.5 -18 7.5s-13.333 1.5 -24 1.5h-192v-438z" />
    <glyph glyph-name="g" unicode="g" horiz-adv-x="818" 
d="M690 84l-0.000976562 292.001h58v-294c-28 -26.667 -63.5 -49.834 -106.5 -69.501s-97.5 -29.5 -163.5 -29.5c-104.667 0 -202.167 35.667 -292.5 107s-135.5 168 -135.5 290c0 128 48.5 228.667 145.5 302s197.833 110 302.5 110c52 0 98.833 -8.5 140.5 -25.5
s74.167 -33.833 97.5 -50.5l-27 -52c-25.333 28 -56.166 52.5 -92.499 73.5s-82.5 31.5 -138.5 31.5c-84 0 -162.833 -30 -236.5 -90s-110.5 -152 -110.5 -276c0 -140 38.5 -239 115.5 -297s154.167 -87 231.5 -87c60 0 106.833 7.33301 140.5 22s57.5 29 71.5 43z" />
    <glyph glyph-name="h" unicode="h" 
d="M70 0v768h65v-274h392v274h65v-768h-65v470h-392v-470h-65z" />
    <glyph glyph-name="i" unicode="i" horiz-adv-x="203" 
d="M133 768v-768h-63v768h63z" />
    <glyph glyph-name="j" unicode="j" horiz-adv-x="427" 
d="M358 193c0 -70.667 -14.667 -123.999 -44 -159.999s-73 -54 -131 -54c-48 0 -89.5 15.167 -124.5 45.5s-52.5 66.5 -52.5 108.5c0 26.667 8 49.334 24 68.001s37.667 28 65 28c10.667 0 20 -2.5 28 -7.5s14.333 -10.833 19 -17.5l-1 -2
c-22.667 -2.66699 -41.5 -12.334 -56.5 -29.001s-22.5 -36.334 -22.5 -59.001c0 -34.667 11.667 -62.667 35 -84s52 -32 86 -32c42 0 71.167 16 87.5 48s24.5 76 24.5 132v590h63v-575z" />
    <glyph glyph-name="k" unicode="k" horiz-adv-x="473" 
d="M405 -8c-28.667 0 -54.8311 13.165 -78.498 39.498s-35.5 76.833 -35.5 151.5v109c0 86.667 -11.833 143.667 -35.5 171s-46.834 41 -69.501 41c-10 0 -19.333 -1.33301 -28 -4s-16.334 -7 -23.001 -13v-487h-65v768h65v-257l196 257h43v-5l-190 -243
c6 1.33301 12 2 18 2c33.333 0 66 -16 98 -48c37.333 -37.333 56 -99.666 56 -186.999v-86c0 -74 8.16699 -123.667 24.5 -149s31.833 -38 46.5 -38c7.33301 0 14.666 1.33301 21.999 4s15 8 23 16l6 -6c-11.333 -13.333 -22.666 -22.666 -33.999 -27.999s-24.333 -8 -39 -8
z" />
    <glyph glyph-name="l" unicode="l" horiz-adv-x="471" 
d="M70 0l0.000976562 768h65v-743h148c49.333 0 86.666 4.33301 111.999 13s45.333 21.667 60 39l6 -4l-44 -73h-347z" />
    <glyph glyph-name="m" unicode="m" horiz-adv-x="816" 
d="M70 0v768h34l309 -463l309 463h24v-768h-65v649l-284 -424h-4l-287 426v-651h-36z" />
    <glyph glyph-name="n" unicode="n" horiz-adv-x="594" 
d="M70 0v768h37l381 -625v625h36v-768h-19l-399 648v-648h-36z" />
    <glyph glyph-name="o" unicode="o" horiz-adv-x="956" 
d="M51 386c-0.666992 114.667 44.167 211 134.5 289s187.833 117 292.5 117c105.333 0 203.166 -38.833 293.499 -116.5s135.5 -174.167 135.5 -289.5c0 -116.667 -45.167 -213.667 -135.5 -291s-188.166 -116 -293.499 -116c-104.667 0 -202 38.833 -292 116.5
s-135 174.5 -135 290.5zM136.001 387c0 -112.667 32.668 -205.167 98.001 -277.5s146.666 -108.5 243.999 -108.5c98 0 179.833 36 245.5 108s98.5 164.333 98.5 277c0 112 -32.833 204 -98.5 276s-147.5 108 -245.5 108c-97.333 0 -178.833 -36.167 -244.5 -108.5
s-98.167 -163.833 -97.5 -274.5z" />
    <glyph glyph-name="p" unicode="p" horiz-adv-x="475" 
d="M135 0l-64.999 0.00195312v768l2 1c5.33301 -1.33301 10.166 -2.33301 14.499 -3s9.16602 -1 14.499 -1c24.667 0 46 3.66699 64 11s43.333 11 76 11c52 0 102.333 -19.5 151 -58.5s73 -91.5 73 -157.5c0 -78 -27.667 -134 -83 -168s-104.333 -51 -147 -51
c-14.667 0 -27.167 1.16699 -37.5 3.5s-17.5 4.83301 -21.5 7.5l5 12c4.66699 -1.33301 11 -3 19 -5s19.667 -3 35 -3c39.333 0 74.5 17.667 105.5 53s46.5 85.666 46.5 150.999c0 56 -14.833 102.667 -44.5 140s-66.5 56 -110.5 56
c-21.333 0 -40.166 -2.83301 -56.499 -8.5s-29.833 -11.834 -40.5 -18.501v-740z" />
    <glyph glyph-name="q" unicode="q" horiz-adv-x="956" 
d="M136 387c0 -112.667 32.668 -205.167 98.001 -277.5s146.666 -108.5 243.999 -108.5c98 0 179.833 36 245.5 108s98.5 164.333 98.5 277c0 112 -32.833 204 -98.5 276s-147.5 108 -245.5 108c-97.333 0 -178.833 -36.167 -244.5 -108.5s-98.167 -163.833 -97.5 -274.5z
M658.001 -206c-64.667 0 -117.663 16.334 -158.996 49.001c-42 32.667 -96.667 49 -164 49c-30 0 -55 -6.16699 -75 -18.5s-30 -32.833 -30 -61.5h-7c-0.666992 5.33301 -1 10.333 -1 15c0 27.333 11.333 49.666 34 66.999c26 20 57 30 93 30c58 0 110 -13 156 -39
c45.333 -26 92.666 -39 141.999 -39c25.333 0 47.833 6.83301 67.5 20.5s29.5 35.5 29.5 65.5c0 26 -6.66699 47 -20 63s-29 27.333 -47 34c-30.667 -16 -63 -28.333 -97 -37s-68 -13 -102 -13c-104.667 0 -202 38.833 -292 116.5s-135 174.5 -135 290.5
c-0.666992 114.667 44.166 211 134.499 289s187.833 117 292.5 117c105.333 0 203.166 -38.833 293.499 -116.5s135.5 -174.167 135.5 -289.5c0 -73.333 -19.5 -140 -58.5 -200s-87.833 -107.667 -146.5 -143c27.333 -10 50.833 -27.167 70.5 -51.5s29.5 -49.833 29.5 -76.5
c0 -40.667 -15.833 -71 -47.5 -91s-63.834 -30 -96.501 -30z" />
    <glyph glyph-name="r" unicode="r" horiz-adv-x="521" 
d="M455 -8c-32 0 -59.8369 17.168 -83.5039 51.501s-35.5 85.166 -35.5 152.499v78c0 85.333 -14.833 141.833 -44.5 169.5s-55.5 41.5 -77.5 41.5c-6.66699 0 -13 -0.666992 -19 -2s-12.333 -4 -19 -8l2 23c34.667 6 67.167 20.667 97.5 44s45.5 57.666 45.5 102.999
c0 36.667 -9.83301 66.334 -29.5 89.001s-45.167 34 -76.5 34c-17.333 0 -32.166 -2.5 -44.499 -7.5s-24.166 -11.167 -35.499 -18.5v-742h-65v768l2 1c5.33301 -1.33301 10 -2.33301 14 -3s8.66699 -1 14 -1c22.667 0 41.334 3.66699 56.001 11s36.334 11 65.001 11
c45.333 0 85.5 -13.667 120.5 -41s52.5 -61 52.5 -101c0 -41.333 -21.333 -74.833 -64 -100.5s-73.334 -40.834 -92.001 -45.501c29.333 -2.66699 63.833 -20 103.5 -52s59.5 -89.667 59.5 -173v-66c0 -77.333 7.33301 -129 22 -155s31.334 -39 50.001 -39
c8 0 15.833 1.33301 23.5 4s15.5 8 23.5 16l6 -6c-8.66699 -11.333 -19 -20.166 -31 -26.499s-25.333 -9.5 -40 -9.5z" />
    <glyph glyph-name="s" unicode="s" horiz-adv-x="518" 
d="M372 789c24 0 47.166 -4.16797 69.499 -12.501s44.833 -22.5 67.5 -42.5l-35 -46c-12.667 27.333 -28 47.666 -46 60.999s-37.667 20 -59 20c-34 0 -60.167 -13.333 -78.5 -40s-27.5 -63 -27.5 -109c0 -74 22.333 -141.333 67 -202c44.667 -61.333 67 -138.333 67 -231
c0 -60 -19.667 -109.667 -59 -149s-90.666 -59 -153.999 -59c-41.333 0 -80.666 13.5 -117.999 40.5s-56 59.5 -56 97.5c0 22.667 8.33301 41.834 25 57.501s32 27.5 46 35.5l3 -3c-8.66699 -22.667 -13 -46.667 -13 -72c0 -20 2.66699 -40.667 8 -62
c12 -49.333 47.333 -74 106 -74c49.333 0 85.666 14 108.999 42s35 69.333 35 124c0 84.667 -22 158.334 -66 221.001s-66 132.667 -66 210c0 51.333 17.333 96.333 52 135s75.667 58 123 58z" />
    <glyph glyph-name="t" unicode="t" horiz-adv-x="545" 
d="M310 744h-6v-744h-63v744h-6c-31.333 0 -68.333 -2 -111 -6s-72.667 -12 -90 -24l-4 3l25 51h435l25 -51l-4 -3c-17.333 12 -47.333 20 -90 24s-79.667 6 -111 6z" />
    <glyph glyph-name="u" unicode="u" horiz-adv-x="620" 
d="M311 -21c-50.667 0 -92.3301 9 -124.997 27s-58.334 42 -77.001 72s-31.5 64.833 -38.5 104.5s-10.5 81.167 -10.5 124.5v461h65v-482c0 -99.333 15.167 -171.333 45.5 -216s80.166 -67 149.499 -67c78 0 132.333 27.333 163 82c31.333 55.333 47 125.333 47 210v473h30
v-464c0 -91.333 -17.333 -168.333 -52 -231s-100.334 -94 -197.001 -94z" />
    <glyph glyph-name="v" unicode="v" horiz-adv-x="676" 
d="M327 0l-317 768h74l273 -670l275 670h34l-317 -768h-22z" />
    <glyph glyph-name="w" unicode="w" horiz-adv-x="916" 
d="M327 0l-317 768h72l274 -673l86 208l-192 465h69l159 -390l160 390h34l-177 -430l100 -246l277 676h34l-317 -768h-22l-109 264l-109 -264h-22z" />
    <glyph glyph-name="x" unicode="x" horiz-adv-x="697" 
d="M40 0l292 397l-249 371h74l218 -325l236 325h40l-258 -352l279 -416h-74l-248 369l-270 -369h-40z" />
    <glyph glyph-name="y" unicode="y" horiz-adv-x="592" 
d="M265 0v380l-235 388h71l213 -354l211 354h37l-233 -386v-382h-64z" />
    <glyph glyph-name="z" unicode="z" horiz-adv-x="607" 
d="M544 0l-510 -0.000976562l-4 5l459 738h-270c-39.333 0 -67 -1.5 -83 -4.5s-33.333 -13.5 -52 -31.5l-6 2l22 59h463l4 -5l-452 -738h285c42.667 0 79.167 3.33301 109.5 10s52.833 17.334 67.5 32.001l5 -4z" />
    <glyph glyph-name="braceleft" unicode="{" horiz-adv-x="278" 
d="M216 -30c-24.667 0 -53.5 7.83789 -86.5 23.5049s-49.5 45.834 -49.5 90.501v251c0 19.333 -4.83301 34.666 -14.5 45.999s-23.5 18.666 -41.5 21.999v24c18 3.33301 31.833 10.666 41.5 21.999s14.5 26.666 14.5 45.999v188c0 46 16.5 76.667 49.5 92s61.833 23 86.5 23
h32v-35h-18c-30.667 0 -53.667 -6.33301 -69 -19s-23 -32.334 -23 -59.001v-189c0 -26.667 -6.66699 -45.167 -20 -55.5s-27.333 -18.5 -42 -24.5v-2c14.667 -6 28.667 -14.167 42 -24.5s20 -28.833 20 -55.5v-251c0 -26.667 7.66699 -46.334 23 -59.001s38.333 -19 69 -19
h18v-35h-32z" />
    <glyph glyph-name="bar" unicode="|" horiz-adv-x="133" 
d="M83 831v-892l-33 -2v894h33z" />
    <glyph glyph-name="braceright" unicode="}" horiz-adv-x="278" 
d="M198 84c0 -44.667 -16.5 -74.8389 -49.5 -90.5059s-61.833 -23.5 -86.5 -23.5h-32v35h18c30.667 0 53.667 6.33301 69 19s23 32.334 23 59.001v261c0 26.667 6.66699 45.167 20 55.5s27.333 18.5 42 24.5v2c-14.667 6 -28.667 14.167 -42 24.5s-20 28.833 -20 55.5v179
c0 26.667 -7.66699 46.334 -23 59.001s-38.333 19 -69 19h-18v35h32c24.667 0 53.5 -7.66699 86.5 -23s49.5 -46 49.5 -92v-178c0 -19.333 4.83301 -34.666 14.5 -45.999s23.5 -18.666 41.5 -21.999v-24c-18 -3.33301 -31.833 -10.666 -41.5 -21.999
s-14.5 -26.666 -14.5 -45.999v-261z" />
    <glyph glyph-name="asciitilde" unicode="~" horiz-adv-x="500" 
d="M161 490c46 0 82.667 -16.667 110 -50c26.667 -34 52.667 -51 78 -51c24.667 0 44.5 9 59.5 27s22.5 42.333 22.5 73h21v-15c0 -33.333 -11 -60.833 -33 -82.5s-47 -32.5 -75 -32.5c-38 0 -69.667 17 -95 51c-26 33.333 -55.333 50 -88 50c-20.667 0 -40.667 -8 -60 -24
s-29 -41.333 -29 -76h-21v15c0 27.333 11 53.333 33 78s47.667 37 77 37z" />
    <glyph glyph-name="copyright" unicode="&#xa9;" horiz-adv-x="807" 
d="M404 13c-99.333 0 -184.833 35.667 -256.5 107s-107.5 156.666 -107.5 255.999s35.833 184.666 107.5 255.999s157.167 107 256.5 107s184.666 -35.667 255.999 -107s107 -156.666 107 -255.999s-35.667 -184.666 -107 -255.999s-156.666 -107 -255.999 -107zM404 41
c90.667 0 168 34 232 102s96 145.667 96 233s-32.167 165 -96.5 233s-141.5 102 -231.5 102c-91.333 0 -169 -34 -233 -102s-96 -145.667 -96 -233s32.333 -165 97 -233s142 -102 232 -102zM553 205c-14.667 -12.667 -34.3301 -24.5039 -58.9971 -35.5039
s-49.334 -16.5 -74.001 -16.5c-62 0 -117.167 19 -165.5 57s-72.5 92.667 -72.5 164s24.167 127.833 72.5 169.5s103.5 62.5 165.5 62.5c25.333 0 49.5 -4.66699 72.5 -14s40.833 -18.666 53.5 -27.999l-15 -32c-14 14.667 -30.5 26.334 -49.5 35.001s-40.833 13 -65.5 13
c-52.667 0 -96 -16.5 -130 -49.5s-51 -80.5 -51 -142.5c0 -79.333 19.667 -133.166 59 -161.499s82.666 -42.5 129.999 -42.5c28.667 0 53.167 4.33301 73.5 13s35.166 16.334 44.499 23.001z" />
    <glyph glyph-name="registered" unicode="&#xae;" horiz-adv-x="500" 
d="M287 319c-64.667 0 -120.334 23.167 -167.001 69.5s-70 101.833 -70 166.5s23.333 120.334 70 167.001s102.334 70 167.001 70s120.167 -23.333 166.5 -70s69.5 -102.334 69.5 -167.001s-23.167 -120.167 -69.5 -166.5s-101.833 -69.5 -166.5 -69.5zM287 341
c58 0 106.667 21.167 146 63.5s59 92.5 59 150.5c0 56.667 -19.667 106.5 -59 149.5s-88 64.5 -146 64.5c-56.667 0 -105.167 -21.5 -145.5 -64.5s-60.5 -92.833 -60.5 -149.5c0 -58 20.167 -108.167 60.5 -150.5s88.833 -63.5 145.5 -63.5zM371 402
c-10.667 0 -21.167 5.16699 -31.5 15.5s-15.5 27.833 -15.5 52.5v23c0 34 -5.66699 54.833 -17 62.5s-23.333 11.5 -36 11.5v11c20 0 33.667 5.66699 41 17s11 27 11 47c0 20.667 -5 36.834 -15 48.501s-25 17.5 -45 17.5h-15v-303h-32v314h45
c22.667 0 44.334 -6.16699 65.001 -18.5s31 -31.833 31 -58.5c0 -20.667 -5.83301 -36.5 -17.5 -47.5s-25.834 -18.167 -42.501 -21.5c15.333 -2.66699 29 -9.5 41 -20.5s18 -27.167 18 -48.5v-39c0 -20.667 2.16699 -34.667 6.5 -42s9.83301 -11 16.5 -11
c2.66699 0 5.16699 0.666992 7.5 2s4.16602 2.66602 5.49902 3.99902l3 -2c-2 -3.33301 -4.66699 -6.5 -8 -9.5s-8.66602 -4.5 -15.999 -4.5z" />
    <glyph glyph-name="degree" unicode="&#xb0;" horiz-adv-x="296" 
d="M148 583c-26.667 0 -49.667 9.83301 -69 29.5s-29 42.834 -29 69.501s9.66699 49.667 29 69s42.333 29 69 29s49.667 -9.66699 69 -29s29 -42.333 29 -69s-9.66699 -49.834 -29 -69.501s-42.333 -29.5 -69 -29.5zM148 600c22 0 40.667 8.16699 56 24.5s23 35.5 23 57.5
s-7.66699 41 -23 57s-34 24 -56 24s-40.667 -8 -56 -24s-23 -35 -23 -57s7.66699 -41.167 23 -57.5s34 -24.5 56 -24.5z" />
    <glyph glyph-name="paragraph" unicode="&#xb6;" horiz-adv-x="575" 
d="M342 0l0.000976562 739.999h-42c-64.667 0 -113.334 -17.667 -146.001 -53s-49 -78 -49 -128c0 -47.333 13 -88.666 39 -123.999s63.667 -53 113 -53h29v-25h-24c-52 0 -102 16.833 -150 50.5s-72 84.167 -72 151.5c0 68 26 119.833 78 155.5s115.667 53.5 191 53.5h186
v-768h-50v740h-53v-740h-50z" />
    <glyph glyph-name="afii10023" unicode="&#x401;" horiz-adv-x="535" 
d="M477 0h-407v768h378l22 -59l-5 -3c-18.667 18.667 -36.5 29.5 -53.5 32.5s-44.5 4.5 -82.5 4.5h-194v-270h231c10.667 0 18.667 0.5 24 1.5s11.333 3.5 18 7.5l2 -1v-41l-2 -1c-6.66699 4 -12.667 6.5 -18 7.5s-13.333 1.5 -24 1.5h-231v-423h199
c36 0 69.667 2.5 101 7.5s56.333 16.5 75 34.5l5 -4zM340 827c-10.667 0 -19.5 3.33301 -26.5 10s-10.5 15 -10.5 25s3.5 18.333 10.5 25s15.833 10 26.5 10c9.33301 0 17.5 -3.33301 24.5 -10s10.5 -15 10.5 -25s-3.5 -18.333 -10.5 -25s-15.167 -10 -24.5 -10zM207 827
c-9.33301 0 -17.5 3.33301 -24.5 10s-10.5 15 -10.5 25s3.5 18.333 10.5 25s15.167 10 24.5 10c10.667 0 19.5 -3.33301 26.5 -10s10.5 -15 10.5 -25s-3.5 -18.333 -10.5 -25s-15.833 -10 -26.5 -10z" />
    <glyph glyph-name="afii10053" unicode="&#x404;" horiz-adv-x="789" 
d="M747 80c-26 -22.667 -61.002 -44.3359 -105.002 -65.0029c-46 -21.333 -100 -32 -162 -32c-110 0 -209.667 35.667 -299 107c-88.667 70.667 -133 167.334 -133 290.001c0 126.667 46.333 227 139 301c92 74 192 111 300 111c46 0 90.333 -6.83301 133 -20.5
s80.667 -32.167 114 -55.5l-27 -52c-28.667 38 -63.667 65.333 -105 82s-84.166 24.5 -128.499 23.5s-88 -10 -131 -27s-80.167 -40.833 -111.5 -71.5c-52 -51.333 -84 -115.666 -96 -192.999l413 -1c10.667 0 18.667 0.5 24 1.5s11.333 3.5 18 7.5l2 -1v-41l-2 -1
c-6.66699 4 -12.667 6.5 -18 7.5s-13.333 1.5 -24 1.5l-416 1c-4.66699 -38 -4.5 -75.833 0.5 -113.5s13.667 -73.5 26 -107.5s28.166 -65.333 47.499 -94s41.333 -52.667 66 -72c32.667 -26 69.834 -43.667 111.501 -53s83.834 -11.166 126.501 -5.49902s84 18.5 124 38.5
s74.667 46.667 104 80z" />
    <glyph glyph-name="uni0406" unicode="&#x406;" horiz-adv-x="203" 
d="M133 768v-768h-63v768h63z" />
    <glyph glyph-name="afii10056" unicode="&#x407;" horiz-adv-x="203" 
d="M133 768v-768h-63v768h63zM170 827c-10.667 0 -19.5 3.33301 -26.5 10s-10.5 15 -10.5 25s3.5 18.333 10.5 25s15.833 10 26.5 10c9.33301 0 17.5 -3.33301 24.5 -10s10.5 -15 10.5 -25s-3.5 -18.333 -10.5 -25s-15.167 -10 -24.5 -10zM37 827
c-9.33301 0 -17.5 3.33301 -24.5 10s-10.5 15 -10.5 25s3.5 18.333 10.5 25s15.167 10 24.5 10c10.667 0 19.5 -3.33301 26.5 -10s10.5 -15 10.5 -25s-3.5 -18.333 -10.5 -25s-15.833 -10 -26.5 -10z" />
    <glyph glyph-name="afii10062" unicode="&#x40e;" horiz-adv-x="642" 
d="M596 768h38l-399 -768h-38l112 216l-293 552h74l256 -480zM338 806c-20.667 0 -38.998 2.5 -54.998 7.5s-29.333 11.667 -40 20s-18.834 17.666 -24.501 27.999s-8.5 20.5 -8.5 30.5c0 8 3.16699 14.333 9.5 19s13.166 7.16699 20.499 7.5s14 -1.66699 20 -6
s8.33301 -11.5 7 -21.5c0 -25.333 5.5 -43.333 16.5 -54s29.167 -16 54.5 -16s43.5 5.33301 54.5 16s16.5 28.667 16.5 54c-1.33301 10 1 17.167 7 21.5s12.833 6.33301 20.5 6s14.667 -2.83301 21 -7.5s9.5 -11 9.5 -19c0 -10 -2.83301 -20.167 -8.5 -30.5
s-14 -19.666 -25 -27.999s-24.5 -15 -40.5 -20s-34.333 -7.5 -55 -7.5z" />
    <glyph glyph-name="afii10017" unicode="&#x410;" horiz-adv-x="783" 
d="M137 203l423 57l-220 443zM689 0l-113 228l-450 -52l-72 -176h-34l304 736c-2.66699 4.66699 -6 8.16699 -10 10.5s-8.66699 4.5 -14 6.5l-3 1v18l84 -6l382 -766h-74z" />
    <glyph glyph-name="afii10018" unicode="&#x411;" horiz-adv-x="558" 
d="M142 472c14.667 6 28.167 10.167 40.5 12.5s26.166 3.5 41.499 3.5c40.667 0.666992 77.834 -5.5 111.501 -18.5s62.667 -30.667 87 -53s43.5 -48.166 57.5 -77.499s22 -60 24 -92s-3.16699 -64.167 -15.5 -96.5s-33.5 -62.5 -63.5 -90.5
c-54.667 -51.333 -121.667 -77 -201 -77c-11.333 0 -21.333 0.666992 -30 2s-19 3.33301 -31 6c-24 6 -46.333 9 -67 9c-3.33301 0 -6.5 -0.166992 -9.5 -0.5s-6.16699 -0.5 -9.5 -0.5v764h345l26 -67l-5 -3c-18.667 21.333 -37.167 34.166 -55.5 38.499
s-46.5 6.5 -84.5 6.5h-161v-266zM142 32c10 -8.66699 20.501 -15.5 31.501 -20.5s27.833 -7.5 50.5 -7.5c34.667 0 64.167 7 88.5 21s44.166 32.333 59.499 55s26.666 48.5 33.999 77.5s11.333 58.167 12 87.5c0 30 -3.83301 58.333 -11.5 85s-19.667 50.167 -36 70.5
s-36.666 36.5 -60.999 48.5s-52.833 18 -85.5 18c-22.667 0 -39.5 -2.5 -50.5 -7.5s-21.5 -11.833 -31.5 -20.5v-407z" />
    <glyph glyph-name="afii10019" unicode="&#x412;" horiz-adv-x="558" 
d="M234 -16c-23.333 0 -46.999 2.66797 -70.999 8.00098c-24 6 -46.333 9 -67 9c-3.33301 0 -6.33301 -0.166992 -9 -0.5s-5.33398 -0.833008 -8.00098 -1.5l-2 1v768l2 1c5.33301 -1.33301 10 -2.33301 14 -3s8.66699 -1 14 -1c23.333 0 43 3.66699 59 11s38.333 11 67 11
c38 0 77.667 -12.333 119 -37s62 -61.334 62 -110.001c0 -34.667 -14 -64 -42 -88s-57.667 -40.333 -89 -49c51.333 1.33301 103.333 -22 156 -70s79 -109.333 79 -184c0 -73.333 -27 -135.833 -81 -187.5s-121.667 -77.5 -203 -77.5zM233.001 766.001
c-20 0 -37.499 -2.5 -52.499 -7.5s-27.833 -11.833 -38.5 -20.5v-705c10 -8.66699 22.167 -15.5 36.5 -20.5s32.833 -7.5 55.5 -7.5c64 0 113.5 22.833 148.5 68.5s52.5 104.167 52.5 175.5c0 79.333 -16 138.5 -48 177.5s-71.333 58.5 -118 58.5c-11.333 0 -21 -1 -29 -3
s-15.667 -4.33301 -23 -7l2 23c28 4.66699 55.333 19 82 43s40 54 40 90c0 42 -9.33301 75 -28 99s-45.334 36 -80.001 36z" />
    <glyph glyph-name="afii10020" unicode="&#x413;" horiz-adv-x="480" 
d="M135 0l-65 0.000976562v768h358l26 -67l-5 -3c-18.667 21.333 -37.167 34.166 -55.5 38.499s-46.5 6.5 -84.5 6.5h-174v-743z" />
    <glyph glyph-name="afii10021" unicode="&#x414;" horiz-adv-x="884" 
d="M137 0c-32 0 -58.5 -9.83301 -79.5 -29.5s-40.5 -43.5 -58.5 -71.5l-8 4l27 126h67l331 707c-2.66699 4.66699 -6 7.16699 -10 7.5s-8.66699 1.5 -14 3.5l-3 1v18h84l320 -737h73l27 -126l-8 -4c-18 28 -37.5 51.833 -58.5 71.5s-47.5 29.5 -79.5 29.5h-610zM119 29h600
l-287 674z" />
    <glyph glyph-name="afii10022" unicode="&#x415;" horiz-adv-x="535" 
d="M477 0h-407v768h378l22 -59l-5 -3c-18.667 18.667 -36.5 29.5 -53.5 32.5s-44.5 4.5 -82.5 4.5h-194v-270h231c10.667 0 18.667 0.5 24 1.5s11.333 3.5 18 7.5l2 -1v-41l-2 -1c-6.66699 4 -12.667 6.5 -18 7.5s-13.333 1.5 -24 1.5h-231v-423h199
c36 0 69.667 2.5 101 7.5s56.333 16.5 75 34.5l5 -4z" />
    <glyph glyph-name="afii10024" unicode="&#x416;" horiz-adv-x="755" 
d="M352 487c-6.66699 6 -14.3281 10.333 -22.9951 13s-18 4 -28 4c-22.667 0 -45.834 -13.667 -69.501 -41s-35.5 -84.333 -35.5 -171v-109c0 -74.667 -11.833 -125.167 -35.5 -151.5s-49.834 -39.5 -78.501 -39.5c-14.667 0 -27.667 2.66699 -39 8
s-22.666 14.666 -33.999 27.999l6 6c8 -8 15.667 -13.333 23 -16s14.666 -4 21.999 -4c14.667 0 30.167 12.667 46.5 38s24.5 75 24.5 149v86c0 87.333 18.667 149.666 56 186.999c32 32 64.667 48 98 48c6 0 12 -0.666992 18 -2l-190 243v5h43l196 -257v257h65v-257
l196 257h43v-5l-190 -243c6 1.33301 12 2 18 2c33.333 0 66 -16 98 -48c37.333 -37.333 56 -99.666 56 -186.999v-86c0 -74 8.16699 -123.667 24.5 -149s31.833 -38 46.5 -38c7.33301 0 14.666 1.33301 21.999 4s15 8 23 16l6 -6
c-11.333 -13.333 -22.666 -22.666 -33.999 -27.999s-24.333 -8 -39 -8c-28.667 0 -54.834 13.167 -78.501 39.5s-35.5 76.833 -35.5 151.5v109c0 86.667 -11.833 143.667 -35.5 171s-46.834 41 -69.501 41c-10 0 -19.333 -1.33301 -28 -4s-16.334 -7 -23.001 -13v-487h-65
v487z" />
    <glyph glyph-name="afii10025" unicode="&#x417;" horiz-adv-x="555" 
d="M232 451c29.333 -2.66699 56.8359 -0.663086 82.5029 6.00391s47.5 21 65.5 43c20 24 32.667 51.5 38 82.5s4 60.5 -4 88.5s-22.333 51.667 -43 71s-47 29 -79 29c-42 0 -77.5 -12.5 -106.5 -37.5s-48.167 -59.167 -57.5 -102.5l-54 39
c28.667 42.667 62.667 73.5 102 92.5s79.333 27.5 120 25.5c39.333 -2 73.333 -10.667 102 -26s51.167 -34.5 67.5 -57.5s26.333 -48 30 -75s0.5 -53.167 -9.5 -78.5s-27 -48 -51 -68s-55.667 -34.333 -95 -43c30 -4 57.167 -13.333 81.5 -28s44.666 -32.834 60.999 -54.501
s28.666 -45.667 36.999 -72s12 -53 11 -80s-7 -53.833 -18 -80.5s-27.5 -50.667 -49.5 -72c-47.333 -46.667 -111.333 -70 -192 -70c-25.333 0 -52.166 4.5 -80.499 13.5s-54.333 21.5 -78 37.5s-43.334 35.167 -59.001 57.5s-23.5 47.166 -23.5 74.499
c0 34 8.66699 59 26 75c16.667 16.667 33.667 25 51 25c8 0 15.333 -1.83301 22 -5.5s10.334 -8.16699 11.001 -13.5c-12.667 -6.66699 -21.834 -15.834 -27.501 -27.501s-8.5 -28.167 -8.5 -49.5c0 -24 3.5 -46 10.5 -66s17.5 -37.5 31.5 -52.5s31.333 -26.667 52 -35
s45 -12.5 73 -12.5c65.333 0 110.666 22 135.999 66c12 20.667 21.167 44.5 27.5 71.5s9.5 54.5 9.5 82.5s-3.66699 55.167 -11 81.5s-18.666 49.166 -33.999 68.499c-19.333 24 -43.833 40 -73.5 48s-60.834 10 -93.501 6v23z" />
    <glyph glyph-name="afii10026" unicode="&#x418;" 
d="M135 0h-65v768h65v-645l392 559v86h65v-768h-65v641l-392 -560v-81z" />
    <glyph glyph-name="afii10027" unicode="&#x419;" 
d="M135 0h-65v768h65v-645l392 559v86h65v-768h-65v641l-392 -560v-81zM335 806c-20.667 0 -38.998 2.5 -54.998 7.5s-29.333 11.667 -40 20s-18.834 17.666 -24.501 27.999s-8.5 20.5 -8.5 30.5c0 8 3.16699 14.333 9.5 19s13.166 7.16699 20.499 7.5s14 -1.66699 20 -6
s8.33301 -11.5 7 -21.5c0 -25.333 5.5 -43.333 16.5 -54s29.167 -16 54.5 -16s43.5 5.33301 54.5 16s16.5 28.667 16.5 54c-1.33301 10 1 17.167 7 21.5s12.833 6.33301 20.5 6s14.667 -2.83301 21 -7.5s9.5 -11 9.5 -19c0 -10 -2.83301 -20.167 -8.5 -30.5
s-14 -19.666 -25 -27.999s-24.5 -15 -40.5 -20s-34.333 -7.5 -55 -7.5z" />
    <glyph glyph-name="afii10028" unicode="&#x41a;" horiz-adv-x="473" 
d="M405 -8c-28.667 0 -54.8311 13.165 -78.498 39.498s-35.5 76.833 -35.5 151.5v109c0 86.667 -11.833 143.667 -35.5 171s-46.834 41 -69.501 41c-10 0 -19.333 -1.33301 -28 -4s-16.334 -7 -23.001 -13v-487h-65v768h65v-257l196 257h43v-5l-190 -243
c6 1.33301 12 2 18 2c33.333 0 66 -16 98 -48c37.333 -37.333 56 -99.666 56 -186.999v-86c0 -74 8.16699 -123.667 24.5 -149s31.833 -38 46.5 -38c7.33301 0 14.666 1.33301 21.999 4s15 8 23 16l6 -6c-11.333 -13.333 -22.666 -22.666 -33.999 -27.999s-24.333 -8 -39 -8
z" />
    <glyph glyph-name="afii10029" unicode="&#x41b;" horiz-adv-x="783" 
d="M340 703l-286 -703h-34l304 736c-2.66699 4.66699 -6 8.16699 -10 10.5s-8.66699 4.5 -14 6.5l-3 1v18l84 -6l382 -766h-74z" />
    <glyph glyph-name="afii10030" unicode="&#x41c;" horiz-adv-x="816" 
d="M70 0v768h34l309 -463l309 463h24v-768h-65v649l-284 -424h-4l-287 426v-651h-36z" />
    <glyph glyph-name="afii10031" unicode="&#x41d;" 
d="M70 0v768h65v-274h392v274h65v-768h-65v470h-392v-470h-65z" />
    <glyph glyph-name="afii10032" unicode="&#x41e;" horiz-adv-x="956" 
d="M51 386c-0.666992 114.667 44.167 211 134.5 289s187.833 117 292.5 117c105.333 0 203.166 -38.833 293.499 -116.5s135.5 -174.167 135.5 -289.5c0 -116.667 -45.167 -213.667 -135.5 -291s-188.166 -116 -293.499 -116c-104.667 0 -202 38.833 -292 116.5
s-135 174.5 -135 290.5zM136.001 387c0 -112.667 32.668 -205.167 98.001 -277.5s146.666 -108.5 243.999 -108.5c98 0 179.833 36 245.5 108s98.5 164.333 98.5 277c0 112 -32.833 204 -98.5 276s-147.5 108 -245.5 108c-97.333 0 -178.833 -36.167 -244.5 -108.5
s-98.167 -163.833 -97.5 -274.5z" />
    <glyph glyph-name="afii10033" unicode="&#x41f;" 
d="M70 0v768h522v-768h-65v744h-392v-744h-65z" />
    <glyph glyph-name="afii10034" unicode="&#x420;" horiz-adv-x="475" 
d="M135 0l-64.999 0.00195312v768l2 1c5.33301 -1.33301 10.166 -2.33301 14.499 -3s9.16602 -1 14.499 -1c24.667 0 46 3.66699 64 11s43.333 11 76 11c52 0 102.333 -19.5 151 -58.5s73 -91.5 73 -157.5c0 -78 -27.667 -134 -83 -168s-104.333 -51 -147 -51
c-14.667 0 -27.167 1.16699 -37.5 3.5s-17.5 4.83301 -21.5 7.5l5 12c4.66699 -1.33301 11 -3 19 -5s19.667 -3 35 -3c39.333 0 74.5 17.667 105.5 53s46.5 85.666 46.5 150.999c0 56 -14.833 102.667 -44.5 140s-66.5 56 -110.5 56
c-21.333 0 -40.166 -2.83301 -56.499 -8.5s-29.833 -11.834 -40.5 -18.501v-740z" />
    <glyph glyph-name="afii10035" unicode="&#x421;" horiz-adv-x="789" 
d="M749 80c-24.667 -22 -59.6689 -43.667 -105.002 -65s-99.333 -32 -162 -32c-110.667 0 -210.334 35.667 -299.001 107s-133 168 -133 290c0 126.667 46.167 227 138.5 301s192.5 111 300.5 111c56.667 0 106.334 -8.5 149.001 -25.5s75.334 -33.833 98.001 -50.5l-27 -52
c-25.333 28 -55.666 52.5 -90.999 73.5s-82 31.5 -140 31.5c-95.333 0.666992 -177 -32 -245 -98s-102 -155 -102 -267c0 -140 40 -239 120 -297s164 -87 252 -87c57.333 0 106.833 9 148.5 27s71.167 33 88.5 45z" />
    <glyph glyph-name="afii10036" unicode="&#x422;" horiz-adv-x="545" 
d="M310 744h-6v-744h-63v744h-6c-31.333 0 -68.333 -2 -111 -6s-72.667 -12 -90 -24l-4 3l25 51h435l25 -51l-4 -3c-17.333 12 -47.333 20 -90 24s-79.667 6 -111 6z" />
    <glyph glyph-name="afii10037" unicode="&#x423;" horiz-adv-x="642" 
d="M596 768h38l-399 -768h-38l112 216l-293 552h74l256 -480z" />
    <glyph glyph-name="afii10038" unicode="&#x424;" horiz-adv-x="791" 
d="M363 207c-4.66699 -1.33301 -9.16699 -2.5 -13.5 -3.5s-8.5 -2.16699 -12.5 -3.5c-18.667 -7.33301 -44 -11 -76 -11c-51.333 0 -101.666 19.667 -150.999 59c-24 19.333 -42.167 44.666 -54.5 75.999s-18.5 64 -18.5 98s6 66.833 18 98.5s30.667 57.5 56 77.5
c49.333 39.333 99.666 59 150.999 59c32 0 57.333 -3.66699 76 -11l12 -4c4 -1.33301 8.33301 -2.66602 13 -3.99902v130h63v-130c4.66699 1.33301 9 2.66602 13 3.99902l12 4c18.667 7.33301 44 11 76 11c51.333 0 101.666 -19.667 150.999 -59
c24.667 -20 43.167 -45.833 55.5 -77.5s18.5 -64.5 18.5 -98.5s-6.16699 -66.667 -18.5 -98s-30.5 -56.666 -54.5 -75.999c-49.333 -39.333 -99.666 -59 -150.999 -59c-32 0 -57.333 3.66699 -76 11c-4 1.33301 -8.16699 2.5 -12.5 3.5s-8.83301 2.16699 -13.5 3.5v-207h-63
v207zM519 209c44 0 80.666 18.668 109.999 56.001c14.667 18.667 25.834 42 33.501 70s11.5 57 11.5 87s-3.83301 59.167 -11.5 87.5s-19.167 52.166 -34.5 71.499c-29.333 37.333 -66 56 -110 56c-20 0 -37.667 -2.5 -53 -7.5s-28.333 -10.5 -39 -16.5v-380
c10.667 -6 23.667 -11.5 39 -16.5s33.333 -7.5 54 -7.5zM269.999 209.001c20.667 0 38.668 2.49902 54.001 7.49902s28.333 10.5 39 16.5v380c-10.667 6 -23.667 11.5 -39 16.5s-33 7.5 -53 7.5c-44 0 -80.667 -18.667 -110 -56
c-15.333 -19.333 -26.833 -43.166 -34.5 -71.499s-11.5 -57.5 -11.5 -87.5s3.66699 -59 11 -87s18.666 -51.333 33.999 -70c29.333 -37.333 66 -56 110 -56z" />
    <glyph glyph-name="afii10039" unicode="&#x425;" horiz-adv-x="697" 
d="M40 0l292 397l-249 371h74l218 -325l236 325h40l-258 -352l279 -416h-74l-248 369l-270 -369h-40z" />
    <glyph glyph-name="afii10040" unicode="&#x426;" horiz-adv-x="718" 
d="M70 0v768h65v-738h392v738h65v-739h93l27 -126l-8 -4c-18 28 -38 51.833 -60 71.5s-49 29.5 -81 29.5h-493z" />
    <glyph glyph-name="afii10041" unicode="&#x427;" horiz-adv-x="615" 
d="M564 768l0.00292969 -768h-63v392c-22 -19.333 -49.667 -34 -83 -44s-69 -15 -107 -15c-50.667 0 -92.334 8 -125.001 24s-58.334 38.333 -77.001 67s-31.5 63.167 -38.5 103.5s-10.5 84.833 -10.5 133.5v106h65v-127c0 -99.333 15.167 -171.333 45.5 -216
s80.166 -67 149.499 -67c17.333 0 34.333 1.16699 51 3.5s32.667 6.33301 48 12s29.833 13.5 43.5 23.5s26.5 22.667 38.5 38v334h63z" />
    <glyph glyph-name="afii10042" unicode="&#x428;" horiz-adv-x="1112" 
d="M69 768h65v-738h392v738h65v-738h392v738h65v-768h-979v768z" />
    <glyph glyph-name="afii10043" unicode="&#x429;" horiz-adv-x="1174" 
d="M69 768h65v-738h392v738h65v-738h392v738h65v-739h93l27 -126l-8 -4c-18 28 -38 51.833 -60 71.5s-49 29.5 -81 29.5h-950v768z" />
    <glyph glyph-name="afii10044" unicode="&#x42a;" horiz-adv-x="730" 
d="M297 473c14.667 6 31.1689 10.165 49.502 12.498s35.166 3.5 50.499 3.5c40.667 0.666992 78.167 -5.5 112.5 -18.5s64.166 -30.667 89.499 -53s45.333 -48.166 60 -77.499s23 -60 25 -92s-3.16699 -64.167 -15.5 -96.5s-33.5 -62.5 -63.5 -90.5
c-27.333 -25.333 -58.666 -44.5 -93.999 -57.5s-73.333 -19.5 -114 -19.5c-11.333 0 -24.333 0.666992 -39 2s-28 3.33301 -40 6c-24 6 -46.333 9 -67 9c-3.33301 0 -6.33301 -0.166992 -9 -0.5s-5.33398 -0.833008 -8.00098 -1.5l-2 1v738h-46
c-38 0 -66.167 -2.16699 -84.5 -6.5s-36.833 -17.166 -55.5 -38.499l-5 3l26 67h230v-290zM297.002 32.998c10 -8.66699 23.5 -15.5 40.5 -20.5s36.833 -7.5 59.5 -7.5c34.667 0 64.5 7 89.5 21s45.667 32.333 62 55s28.5 48.5 36.5 77.5s12.333 58.167 13 87.5
c0 30 -4.33301 58.333 -13 85s-21.5 50.167 -38.5 70.5s-38 36.5 -63 48.5s-53.833 18 -86.5 18c-22.667 0 -42.5 -2.5 -59.5 -7.5s-30.5 -11.833 -40.5 -20.5v-407z" />
    <glyph glyph-name="afii10045" unicode="&#x42b;" horiz-adv-x="724" 
d="M134 763l-65.002 0.000976562v-763l2 -1c2.66699 0.666992 5.33398 1.16699 8.00098 1.5s5.66699 0.5 9 0.5c20.667 0 43 -3 67 -9c12 -2.66699 25.333 -4.66699 40 -6s27.667 -2 39 -2c40.667 0 78.667 6.5 114 19.5s66.666 32.167 93.999 57.5
c30 28 51.167 58.167 63.5 90.5s17.5 64.5 15.5 96.5s-10.333 62.667 -25 92s-34.667 55.166 -60 77.499s-55.166 40 -89.499 53s-71.833 19.167 -112.5 18.5c-15.333 0 -32.166 -1.16699 -50.499 -3.5s-34.833 -6.5 -49.5 -12.5v290zM133.998 440.001
c10 8.66699 23.5 15.5 40.5 20.5s36.833 7.5 59.5 7.5c32.667 0 61.5 -6 86.5 -18s46 -28.167 63 -48.5s29.833 -43.833 38.5 -70.5s13 -55 13 -85c-0.666992 -29.333 -5 -58.5 -13 -87.5s-20.167 -54.833 -36.5 -77.5s-37 -41 -62 -55s-54.833 -21 -89.5 -21
c-22.667 0 -42.5 2.5 -59.5 7.5s-30.5 11.833 -40.5 20.5v407zM653.998 768.001v-768h-63v768h63z" />
    <glyph glyph-name="afii10046" unicode="&#x42c;" horiz-adv-x="571" 
d="M138 473c14.667 6 31.1689 10.166 49.502 12.499s35.166 3.5 50.499 3.5c40.667 0.666992 78.167 -5.5 112.5 -18.5s64.166 -30.667 89.499 -53s45.333 -48.166 60 -77.499s23 -60 25 -92s-3.16699 -64.167 -15.5 -96.5s-33.5 -62.5 -63.5 -90.5
c-27.333 -25.333 -58.666 -44.5 -93.999 -57.5s-73.333 -19.5 -114 -19.5c-11.333 0 -24.333 0.666992 -39 2s-28 3.33301 -40 6c-24 6 -46.333 9 -67 9c-3.33301 0 -6.33301 -0.166992 -9 -0.5s-5.33398 -0.833008 -8.00098 -1.5l-2 1v763h65v-290zM138.002 32.999
c10 -8.66699 23.5 -15.5 40.5 -20.5s36.833 -7.5 59.5 -7.5c34.667 0 64.5 7 89.5 21s45.667 32.333 62 55s28.5 48.5 36.5 77.5s12.333 58.167 13 87.5c0 30 -4.33301 58.333 -13 85s-21.5 50.167 -38.5 70.5s-38 36.5 -63 48.5s-53.833 18 -86.5 18
c-22.667 0 -42.5 -2.5 -59.5 -7.5s-30.5 -11.833 -40.5 -20.5v-407z" />
    <glyph glyph-name="afii10047" unicode="&#x42d;" horiz-adv-x="789" 
d="M85 247c16.667 16.667 33.666 25.002 50.999 25.002c8 0 15.333 -1.83301 22 -5.5s10.334 -8.16699 11.001 -13.5c-12.667 -6.66699 -21.834 -15.834 -27.501 -27.501s-8.5 -28.167 -8.5 -49.5c0 -31.333 6.33301 -58 19 -80s29.5 -40.333 50.5 -55
s44.667 -25.334 71 -32.001s53.5 -10 81.5 -10c62 0 113.5 13.167 154.5 39.5s73.167 60.833 96.5 103.5s38.666 91.167 45.999 145.5s8.66602 109.5 3.99902 165.5l-408 -1c-10.667 0 -18.667 -0.5 -24 -1.5s-11.333 -3.5 -18 -7.5l-2 1v41l2 1
c6.66699 -4 12.667 -6.5 18 -7.5s13.333 -1.5 24 -1.5l405 1c-5.33301 42 -15.666 80.833 -30.999 116.5s-35.333 66.5 -60 92.5s-53.667 46.333 -87 61s-70.666 22 -111.999 22c-43.333 0 -84.666 -8.5 -123.999 -25.5s-73 -43.833 -101 -80.5l-27 52
c33.333 23.333 71.333 41.833 114 55.5s87 20.5 133 20.5c54.667 0 105.334 -10.333 152.001 -31s87 -49.334 121 -86.001s60.667 -79.834 80 -129.501s29 -103.5 29 -161.5c0 -59.333 -9.33301 -113.666 -28 -162.999s-45 -92 -79 -128s-75 -64.167 -123 -84.5
s-101 -31.166 -159 -32.499c-27.333 0 -57.833 3.83301 -91.5 11.5s-65.334 19.5 -95.001 35.5s-54.667 36.333 -75 61s-30.5 54 -30.5 88s8.66699 59 26 75z" />
    <glyph glyph-name="afii10048" unicode="&#x42e;" horiz-adv-x="1170" 
d="M239 386c-0.666992 29.333 1.99902 57.333 7.99902 84h-112v-470h-65v768h65v-274h118c20 68.667 60 129 120 181c90.667 78 188.334 117 293.001 117c105.333 0 203.166 -38.833 293.499 -116.5s135.5 -174.167 135.5 -289.5c0 -116.667 -45.167 -213.667 -135.5 -291
s-188.166 -116 -293.499 -116c-104.667 0 -202 38.833 -292 116.5s-135 174.5 -135 290.5zM323.999 387c0 -112.667 32.668 -205.167 98.001 -277.5s146.666 -108.5 243.999 -108.5c98 0 179.833 36 245.5 108s98.5 164.333 98.5 277c0 112 -32.833 204 -98.5 276
s-147.5 108 -245.5 108c-97.333 0 -178.833 -36.167 -244.5 -108.5s-98.167 -163.833 -97.5 -274.5z" />
    <glyph glyph-name="afii10049" unicode="&#x42f;" horiz-adv-x="521" 
d="M84 -8c-14.667 0 -28.0039 3.16602 -40.0039 9.49902s-22.333 15.166 -31 26.499l6 6c8 -8 15.833 -13.333 23.5 -16s15.5 -4 23.5 -4c18.667 0 35.334 13 50.001 39s22 77.667 22 155v66c0 83.333 19.833 141 59.5 173s74.167 49.333 103.5 52
c-18.667 4.66699 -49.334 19.834 -92.001 45.501s-64 59.167 -64 100.5c0 40 17.5 73.667 52.5 101s75.167 41 120.5 41c28.667 0 50.334 -3.66699 65.001 -11s33.334 -11 56.001 -11c5.33301 0 10 0.333008 14 1s8.66699 1.66699 14 3l2 -1v-768h-65v742
c-11.333 7.33301 -23.166 13.5 -35.499 18.5s-27.166 7.5 -44.499 7.5c-31.333 0 -56.833 -11.333 -76.5 -34s-29.5 -52.334 -29.5 -89.001c0 -45.333 15.167 -79.666 45.5 -102.999s62.833 -38 97.5 -44l2 -23c-6.66699 4 -13 6.66699 -19 8s-12.333 2 -19 2
c-22 0 -47.833 -13.833 -77.5 -41.5s-44.5 -84.167 -44.5 -169.5v-78c0 -67.333 -11.833 -118.166 -35.5 -152.499s-51.5 -51.5 -83.5 -51.5z" />
    <glyph glyph-name="afii10065" unicode="&#x430;" horiz-adv-x="783" 
d="M137 203l423 57l-220 443zM689 0l-113 228l-450 -52l-72 -176h-34l304 736c-2.66699 4.66699 -6 8.16699 -10 10.5s-8.66699 4.5 -14 6.5l-3 1v18l84 -6l382 -766h-74z" />
    <glyph glyph-name="afii10066" unicode="&#x431;" horiz-adv-x="558" 
d="M142 472c14.667 6 28.167 10.167 40.5 12.5s26.166 3.5 41.499 3.5c40.667 0.666992 77.834 -5.5 111.501 -18.5s62.667 -30.667 87 -53s43.5 -48.166 57.5 -77.499s22 -60 24 -92s-3.16699 -64.167 -15.5 -96.5s-33.5 -62.5 -63.5 -90.5
c-54.667 -51.333 -121.667 -77 -201 -77c-11.333 0 -21.333 0.666992 -30 2s-19 3.33301 -31 6c-24 6 -46.333 9 -67 9c-3.33301 0 -6.5 -0.166992 -9.5 -0.5s-6.16699 -0.5 -9.5 -0.5v764h345l26 -67l-5 -3c-18.667 21.333 -37.167 34.166 -55.5 38.499
s-46.5 6.5 -84.5 6.5h-161v-266zM142 32c10 -8.66699 20.501 -15.5 31.501 -20.5s27.833 -7.5 50.5 -7.5c34.667 0 64.167 7 88.5 21s44.166 32.333 59.499 55s26.666 48.5 33.999 77.5s11.333 58.167 12 87.5c0 30 -3.83301 58.333 -11.5 85s-19.667 50.167 -36 70.5
s-36.666 36.5 -60.999 48.5s-52.833 18 -85.5 18c-22.667 0 -39.5 -2.5 -50.5 -7.5s-21.5 -11.833 -31.5 -20.5v-407z" />
    <glyph glyph-name="afii10067" unicode="&#x432;" horiz-adv-x="558" 
d="M234 -16c-23.333 0 -46.999 2.66797 -70.999 8.00098c-24 6 -46.333 9 -67 9c-3.33301 0 -6.33301 -0.166992 -9 -0.5s-5.33398 -0.833008 -8.00098 -1.5l-2 1v768l2 1c5.33301 -1.33301 10 -2.33301 14 -3s8.66699 -1 14 -1c23.333 0 43 3.66699 59 11s38.333 11 67 11
c38 0 77.667 -12.333 119 -37s62 -61.334 62 -110.001c0 -34.667 -14 -64 -42 -88s-57.667 -40.333 -89 -49c51.333 1.33301 103.333 -22 156 -70s79 -109.333 79 -184c0 -73.333 -27 -135.833 -81 -187.5s-121.667 -77.5 -203 -77.5zM233.001 766.001
c-20 0 -37.499 -2.5 -52.499 -7.5s-27.833 -11.833 -38.5 -20.5v-705c10 -8.66699 22.167 -15.5 36.5 -20.5s32.833 -7.5 55.5 -7.5c64 0 113.5 22.833 148.5 68.5s52.5 104.167 52.5 175.5c0 79.333 -16 138.5 -48 177.5s-71.333 58.5 -118 58.5c-11.333 0 -21 -1 -29 -3
s-15.667 -4.33301 -23 -7l2 23c28 4.66699 55.333 19 82 43s40 54 40 90c0 42 -9.33301 75 -28 99s-45.334 36 -80.001 36z" />
    <glyph glyph-name="afii10068" unicode="&#x433;" horiz-adv-x="480" 
d="M135 0l-65 0.000976562v768h358l26 -67l-5 -3c-18.667 21.333 -37.167 34.166 -55.5 38.499s-46.5 6.5 -84.5 6.5h-174v-743z" />
    <glyph glyph-name="afii10069" unicode="&#x434;" horiz-adv-x="613" 
d="M509 765v-736h65l27 -126l-8 -4c-17.333 28 -36.166 51.5 -56.499 70.5s-45.833 29.167 -76.5 30.5h-304c-32 0 -58.5 -9.83301 -79.5 -29.5s-40.5 -43.5 -58.5 -71.5l-8 4l27 126h63c19.333 21.333 37 49.833 53 85.5s30.667 75 44 118s25.166 88.333 35.499 136
s18.833 94.167 25.5 139.5s11.5 87.833 14.5 127.5s4.16699 73.5 3.5 101.5c-19.333 -1.33301 -35 -3.33301 -47 -6c-18 -4 -36.333 -16.667 -55 -38l-5 3l26 69h314zM307 738c-2 -73.333 -8.16797 -146.5 -18.501 -219.5s-23.166 -141.5 -38.499 -205.5
s-32.833 -120.833 -52.5 -170.5s-40.5 -87.5 -62.5 -113.5h311v709h-132h-7z" />
    <glyph glyph-name="afii10070" unicode="&#x435;" horiz-adv-x="535" 
d="M477 0h-407v768h378l22 -59l-5 -3c-18.667 18.667 -36.5 29.5 -53.5 32.5s-44.5 4.5 -82.5 4.5h-194v-270h231c10.667 0 18.667 0.5 24 1.5s11.333 3.5 18 7.5l2 -1v-41l-2 -1c-6.66699 4 -12.667 6.5 -18 7.5s-13.333 1.5 -24 1.5h-231v-423h199
c36 0 69.667 2.5 101 7.5s56.333 16.5 75 34.5l5 -4z" />
    <glyph glyph-name="afii10072" unicode="&#x436;" horiz-adv-x="755" 
d="M352 487c-6.66699 6 -14.3281 10.333 -22.9951 13s-18 4 -28 4c-22.667 0 -45.834 -13.667 -69.501 -41s-35.5 -84.333 -35.5 -171v-109c0 -74.667 -11.833 -125.167 -35.5 -151.5s-49.834 -39.5 -78.501 -39.5c-14.667 0 -27.667 2.66699 -39 8
s-22.666 14.666 -33.999 27.999l6 6c8 -8 15.667 -13.333 23 -16s14.666 -4 21.999 -4c14.667 0 30.167 12.667 46.5 38s24.5 75 24.5 149v86c0 87.333 18.667 149.666 56 186.999c32 32 64.667 48 98 48c6 0 12 -0.666992 18 -2l-190 243v5h43l196 -257v257h65v-257
l196 257h43v-5l-190 -243c6 1.33301 12 2 18 2c33.333 0 66 -16 98 -48c37.333 -37.333 56 -99.666 56 -186.999v-86c0 -74 8.16699 -123.667 24.5 -149s31.833 -38 46.5 -38c7.33301 0 14.666 1.33301 21.999 4s15 8 23 16l6 -6
c-11.333 -13.333 -22.666 -22.666 -33.999 -27.999s-24.333 -8 -39 -8c-28.667 0 -54.834 13.167 -78.501 39.5s-35.5 76.833 -35.5 151.5v109c0 86.667 -11.833 143.667 -35.5 171s-46.834 41 -69.501 41c-10 0 -19.333 -1.33301 -28 -4s-16.334 -7 -23.001 -13v-487h-65
v487z" />
    <glyph glyph-name="afii10073" unicode="&#x437;" horiz-adv-x="555" 
d="M232 451c29.333 -2.66699 56.8359 -0.664062 82.5029 6.00293s47.5 21 65.5 43c20 24 32.667 51.5 38 82.5s4 60.5 -4 88.5s-22.333 51.667 -43 71s-47 29 -79 29c-42 0 -77.5 -12.5 -106.5 -37.5s-48.167 -59.167 -57.5 -102.5l-54 39
c28.667 42.667 62.667 73.5 102 92.5s79.333 27.5 120 25.5c39.333 -2 73.333 -10.667 102 -26s51.167 -34.5 67.5 -57.5s26.333 -48 30 -75s0.5 -53.167 -9.5 -78.5s-27 -48 -51 -68s-55.667 -34.333 -95 -43c30 -4 57.167 -13.333 81.5 -28s44.666 -32.834 60.999 -54.501
s28.666 -45.667 36.999 -72s12 -53 11 -80s-7 -53.833 -18 -80.5s-27.5 -50.667 -49.5 -72c-47.333 -46.667 -111.333 -70 -192 -70c-67.333 0 -124.333 20 -171 60s-70 81 -70 123c0 34 8.66699 59 26 75c16.667 16.667 33.667 25 51 25c8 0 15.333 -1.83301 22 -5.5
s10.334 -8.16699 11.001 -13.5c-12.667 -6.66699 -21.834 -15.834 -27.501 -27.501s-8.5 -28.167 -8.5 -49.5c0 -34 11.333 -70.333 34 -109c22.667 -38 67 -57 133 -57c65.333 0 110.666 22 135.999 66c12 20.667 21.167 44.5 27.5 71.5s9.5 54.5 9.5 82.5
s-3.66699 55.167 -11 81.5s-18.666 49.166 -33.999 68.499c-19.333 24 -43.833 40 -73.5 48s-60.834 10 -93.501 6v23z" />
    <glyph glyph-name="afii10074" unicode="&#x438;" 
d="M135 0h-65v768h65v-645l392 559v86h65v-768h-65v641l-392 -560v-81z" />
    <glyph glyph-name="afii10075" unicode="&#x439;" 
d="M135 0h-65v768h65v-645l392 559v86h65v-768h-65v641l-392 -560v-81zM335 806c-20.667 0 -38.998 2.5 -54.998 7.5s-29.333 11.667 -40 20s-18.834 17.666 -24.501 27.999s-8.5 20.5 -8.5 30.5c0 8 3.16699 14.333 9.5 19s13.166 7.16699 20.499 7.5s14 -1.66699 20 -6
s8.33301 -11.5 7 -21.5c0 -25.333 5.5 -43.333 16.5 -54s29.167 -16 54.5 -16s43.5 5.33301 54.5 16s16.5 28.667 16.5 54c-1.33301 10 1 17.167 7 21.5s12.833 6.33301 20.5 6s14.667 -2.83301 21 -7.5s9.5 -11 9.5 -19c0 -10 -2.83301 -20.167 -8.5 -30.5
s-14 -19.666 -25 -27.999s-24.5 -15 -40.5 -20s-34.333 -7.5 -55 -7.5z" />
    <glyph glyph-name="afii10076" unicode="&#x43a;" horiz-adv-x="473" 
d="M405 -8c-28.667 0 -54.8311 13.165 -78.498 39.498s-35.5 76.833 -35.5 151.5v109c0 86.667 -11.833 143.667 -35.5 171s-46.834 41 -69.501 41c-10 0 -19.333 -1.33301 -28 -4s-16.334 -7 -23.001 -13v-487h-65v768h65v-257l196 257h43v-5l-190 -243
c6 1.33301 12 2 18 2c33.333 0 66 -16 98 -48c37.333 -37.333 56 -99.666 56 -186.999v-86c0 -74 8.16699 -123.667 24.5 -149s31.833 -38 46.5 -38c7.33301 0 14.666 1.33301 21.999 4s15 8 23 16l6 -6c-11.333 -13.333 -22.666 -22.666 -33.999 -27.999s-24.333 -8 -39 -8
z" />
    <glyph glyph-name="afii10077" unicode="&#x43b;" horiz-adv-x="555" 
d="M3 45c24.667 0 47.835 7.83398 69.502 23.501s41.167 39.5 58.5 71.5c18.667 34 35 74.167 49 120.5s25.667 95.833 35 148.5s16.666 107.167 21.999 163.5s8.66602 111.166 9.99902 164.499c-21.333 -0.666992 -39.666 -2.66699 -54.999 -6
c-21.333 -4 -41.333 -16.667 -60 -38l-5 3l26 67l331 1v-764h-63v738h-146h-6c0 -54.667 -2.33301 -109.5 -7 -164.5s-11.5 -108.5 -20.5 -160.5s-20 -101.5 -33 -148.5s-27.833 -89.5 -44.5 -127.5s-35.334 -70.667 -56.001 -98s-42.667 -47 -66 -59z" />
    <glyph glyph-name="afii10078" unicode="&#x43c;" horiz-adv-x="816" 
d="M70 0v768h34l309 -463l309 463h24v-768h-65v649l-284 -424h-4l-287 426v-651h-36z" />
    <glyph glyph-name="afii10079" unicode="&#x43d;" 
d="M70 0v768h65v-274h392v274h65v-768h-65v470h-392v-470h-65z" />
    <glyph glyph-name="afii10080" unicode="&#x43e;" horiz-adv-x="956" 
d="M51 386c-0.666992 114.667 44.167 211 134.5 289s187.833 117 292.5 117c105.333 0 203.166 -38.833 293.499 -116.5s135.5 -174.167 135.5 -289.5c0 -116.667 -45.167 -213.667 -135.5 -291s-188.166 -116 -293.499 -116c-104.667 0 -202 38.833 -292 116.5
s-135 174.5 -135 290.5zM136.001 387c0 -112.667 32.668 -205.167 98.001 -277.5s146.666 -108.5 243.999 -108.5c98 0 179.833 36 245.5 108s98.5 164.333 98.5 277c0 112 -32.833 204 -98.5 276s-147.5 108 -245.5 108c-97.333 0 -178.833 -36.167 -244.5 -108.5
s-98.167 -163.833 -97.5 -274.5z" />
    <glyph glyph-name="afii10081" unicode="&#x43f;" 
d="M70 0v768h522v-768h-65v744h-392v-744h-65z" />
    <glyph glyph-name="afii10082" unicode="&#x440;" horiz-adv-x="475" 
d="M135 0l-64.999 0.00195312v768l2 1c5.33301 -1.33301 10.166 -2.33301 14.499 -3s9.16602 -1 14.499 -1c24.667 0 46 3.66699 64 11s43.333 11 76 11c52 0 102.333 -19.5 151 -58.5s73 -91.5 73 -157.5c0 -78 -27.667 -134 -83 -168s-104.333 -51 -147 -51
c-14.667 0 -27.167 1.16699 -37.5 3.5s-17.5 4.83301 -21.5 7.5l5 12c4.66699 -1.33301 11 -3 19 -5s19.667 -3 35 -3c39.333 0 74.5 17.667 105.5 53s46.5 85.666 46.5 150.999c0 56 -14.833 102.667 -44.5 140s-66.5 56 -110.5 56
c-21.333 0 -40.166 -2.83301 -56.499 -8.5s-29.833 -11.834 -40.5 -18.501v-740z" />
    <glyph glyph-name="afii10083" unicode="&#x441;" horiz-adv-x="789" 
d="M749 80c-24.667 -22 -59.6689 -43.667 -105.002 -65s-99.333 -32 -162 -32c-110.667 0 -210.334 35.667 -299.001 107s-133 168 -133 290c0 126.667 46.167 227 138.5 301s192.5 111 300.5 111c56.667 0 106.334 -8.5 149.001 -25.5s75.334 -33.833 98.001 -50.5l-27 -52
c-25.333 28 -55.666 52.5 -90.999 73.5s-82 31.5 -140 31.5c-95.333 0.666992 -177 -32 -245 -98s-102 -155 -102 -267c0 -140 40 -239 120 -297s164 -87 252 -87c57.333 0 106.833 9 148.5 27s71.167 33 88.5 45z" />
    <glyph glyph-name="afii10084" unicode="&#x442;" horiz-adv-x="545" 
d="M310 744h-6v-744h-63v744h-6c-31.333 0 -68.333 -2 -111 -6s-72.667 -12 -90 -24l-4 3l25 51h435l25 -51l-4 -3c-17.333 12 -47.333 20 -90 24s-79.667 6 -111 6z" />
    <glyph glyph-name="afii10085" unicode="&#x443;" horiz-adv-x="642" 
d="M596 768h38l-399 -768h-38l112 216l-293 552h74l256 -480z" />
    <glyph glyph-name="afii10086" unicode="&#x444;" horiz-adv-x="791" 
d="M363 669c-40 0 -74.668 -7.33594 -104.001 -22.0029s-53.666 -34.167 -72.999 -58.5s-34 -52.166 -44 -83.499s-16 -64 -18 -98c-2 -37.333 1.33301 -73.666 10 -108.999s22.667 -66.666 42 -93.999s44.5 -49.5 75.5 -66.5s68.167 -25.833 111.5 -26.5v558z
M425.999 110.997c43.333 0.666992 80.5 9.50293 111.5 26.5029s56.5 39.167 76.5 66.5s34.333 58.666 43 93.999s12 71.666 10 108.999c-2 34 -8.16699 66.667 -18.5 98s-25.333 59.166 -45 83.499s-44.167 43.833 -73.5 58.5s-64 22 -104 22v-558zM362.999 0
l-0.00195312 85c-46.667 1.33301 -90 9.83301 -130 25.5s-74.5 36.834 -103.5 63.501s-51.833 58.167 -68.5 94.5s-25 76.166 -25 119.499c-0.666992 43.333 7.33301 83.333 24 120s39.834 68.5 69.501 95.5s64.5 48.333 104.5 64s83 23.5 129 23.5v77h63v-77
c45.333 0 87.833 -7.66699 127.5 -23s74.334 -36.5 104.001 -63.5s53 -59 70 -96s25.167 -77.167 24.5 -120.5c0 -43.333 -8.16699 -83.166 -24.5 -119.499s-39 -67.833 -68 -94.5s-63.5 -47.834 -103.5 -63.501s-83.333 -24.167 -130 -25.5v-85h-63z" />
    <glyph glyph-name="afii10087" unicode="&#x445;" horiz-adv-x="697" 
d="M40 0l292 397l-249 371h74l218 -325l236 325h40l-258 -352l279 -416h-74l-248 369l-270 -369h-40z" />
    <glyph glyph-name="afii10088" unicode="&#x446;" horiz-adv-x="718" 
d="M70 0v768h65v-738h392v738h65v-739h93l27 -126l-8 -4c-18 28 -38 51.833 -60 71.5s-49 29.5 -81 29.5h-493z" />
    <glyph glyph-name="afii10089" unicode="&#x447;" horiz-adv-x="615" 
d="M564 768l0.00292969 -768h-63v392c-22 -19.333 -49.667 -34 -83 -44s-69 -15 -107 -15c-50.667 0 -92.334 8 -125.001 24s-58.334 38.333 -77.001 67s-31.5 63.167 -38.5 103.5s-10.5 84.833 -10.5 133.5v106h65v-127c0 -99.333 15.167 -171.333 45.5 -216
s80.166 -67 149.499 -67c17.333 0 34.333 1.16699 51 3.5s32.667 6.33301 48 12s29.833 13.5 43.5 23.5s26.5 22.667 38.5 38v334h63z" />
    <glyph glyph-name="afii10090" unicode="&#x448;" horiz-adv-x="1112" 
d="M69 768h65v-738h392v738h65v-738h392v738h65v-768h-979v768z" />
    <glyph glyph-name="afii10091" unicode="&#x449;" horiz-adv-x="1174" 
d="M69 768h65v-738h392v738h65v-738h392v738h65v-739h93l27 -126l-8 -4c-18 28 -38 51.833 -60 71.5s-49 29.5 -81 29.5h-950v768z" />
    <glyph glyph-name="afii10092" unicode="&#x44a;" horiz-adv-x="730" 
d="M297 473c14.667 6 31.1689 10.165 49.502 12.498s35.166 3.5 50.499 3.5c40.667 0.666992 78.167 -5.5 112.5 -18.5s64.166 -30.667 89.499 -53s45.333 -48.166 60 -77.499s23 -60 25 -92s-3.16699 -64.167 -15.5 -96.5s-33.5 -62.5 -63.5 -90.5
c-27.333 -25.333 -58.666 -44.5 -93.999 -57.5s-73.333 -19.5 -114 -19.5c-11.333 0 -24.333 0.666992 -39 2s-28 3.33301 -40 6c-24 6 -46.333 9 -67 9c-3.33301 0 -6.33301 -0.166992 -9 -0.5s-5.33398 -0.833008 -8.00098 -1.5l-2 1v738h-46
c-38 0 -66.167 -2.16699 -84.5 -6.5s-36.833 -17.166 -55.5 -38.499l-5 3l26 67h230v-290zM297.002 32.998c10 -8.66699 23.5 -15.5 40.5 -20.5s36.833 -7.5 59.5 -7.5c34.667 0 64.5 7 89.5 21s45.667 32.333 62 55s28.5 48.5 36.5 77.5s12.333 58.167 13 87.5
c0 30 -4.33301 58.333 -13 85s-21.5 50.167 -38.5 70.5s-38 36.5 -63 48.5s-53.833 18 -86.5 18c-22.667 0 -42.5 -2.5 -59.5 -7.5s-30.5 -11.833 -40.5 -20.5v-407z" />
    <glyph glyph-name="afii10093" unicode="&#x44b;" horiz-adv-x="724" 
d="M134 763l-65.002 0.000976562v-763l2 -1c2.66699 0.666992 5.33398 1.16699 8.00098 1.5s5.66699 0.5 9 0.5c20.667 0 43 -3 67 -9c12 -2.66699 25.333 -4.66699 40 -6s27.667 -2 39 -2c40.667 0 78.667 6.5 114 19.5s66.666 32.167 93.999 57.5
c30 28 51.167 58.167 63.5 90.5s17.5 64.5 15.5 96.5s-10.333 62.667 -25 92s-34.667 55.166 -60 77.499s-55.166 40 -89.499 53s-71.833 19.167 -112.5 18.5c-15.333 0 -32.166 -1.16699 -50.499 -3.5s-34.833 -6.5 -49.5 -12.5v290zM133.998 440.001
c10 8.66699 23.5 15.5 40.5 20.5s36.833 7.5 59.5 7.5c32.667 0 61.5 -6 86.5 -18s46 -28.167 63 -48.5s29.833 -43.833 38.5 -70.5s13 -55 13 -85c-0.666992 -29.333 -5 -58.5 -13 -87.5s-20.167 -54.833 -36.5 -77.5s-37 -41 -62 -55s-54.833 -21 -89.5 -21
c-22.667 0 -42.5 2.5 -59.5 7.5s-30.5 11.833 -40.5 20.5v407zM653.998 768.001v-768h-63v768h63z" />
    <glyph glyph-name="afii10094" unicode="&#x44c;" horiz-adv-x="571" 
d="M138 473c14.667 6 31.1689 10.166 49.502 12.499s35.166 3.5 50.499 3.5c40.667 0.666992 78.167 -5.5 112.5 -18.5s64.166 -30.667 89.499 -53s45.333 -48.166 60 -77.499s23 -60 25 -92s-3.16699 -64.167 -15.5 -96.5s-33.5 -62.5 -63.5 -90.5
c-27.333 -25.333 -58.666 -44.5 -93.999 -57.5s-73.333 -19.5 -114 -19.5c-11.333 0 -24.333 0.666992 -39 2s-28 3.33301 -40 6c-24 6 -46.333 9 -67 9c-3.33301 0 -6.33301 -0.166992 -9 -0.5s-5.33398 -0.833008 -8.00098 -1.5l-2 1v763h65v-290zM138.002 32.999
c10 -8.66699 23.5 -15.5 40.5 -20.5s36.833 -7.5 59.5 -7.5c34.667 0 64.5 7 89.5 21s45.667 32.333 62 55s28.5 48.5 36.5 77.5s12.333 58.167 13 87.5c0 30 -4.33301 58.333 -13 85s-21.5 50.167 -38.5 70.5s-38 36.5 -63 48.5s-53.833 18 -86.5 18
c-22.667 0 -42.5 -2.5 -59.5 -7.5s-30.5 -11.833 -40.5 -20.5v-407z" />
    <glyph glyph-name="afii10095" unicode="&#x44d;" horiz-adv-x="789" 
d="M58 126c29.333 -33.333 63.9951 -60.001 103.995 -80.001s81.333 -32.833 124 -38.5s84.834 -3.83398 126.501 5.49902s78.834 27 111.501 53c24.667 19.333 46.667 43.333 66 72s35.166 60 47.499 94s21 69.833 26 107.5s5.16699 75.5 0.5 113.5l-416 -1
c-10.667 0 -18.667 -0.5 -24 -1.5s-11.333 -3.5 -18 -7.5l-2 1v41l2 1c6.66699 -4 12.667 -6.5 18 -7.5s13.333 -1.5 24 -1.5l413 1c-3.33301 42 -13.666 80.5 -30.999 115.5s-39.666 65.333 -66.999 91s-58.666 45.834 -93.999 60.501s-72.666 23 -111.999 25
c-46 2 -90 -5.33301 -132 -22s-78.333 -44.667 -109 -84l-27 52c33.333 23.333 71.333 41.833 114 55.5s87 20.5 133 20.5c56.667 0 110 -10.167 160 -30.5s93.667 -48.666 131 -84.999s66.833 -79.833 88.5 -130.5s32.5 -106 32.5 -166
c0 -122.667 -44.333 -219.334 -133 -290.001c-89.333 -71.333 -189 -107 -299 -107c-62 0 -116 10.667 -162 32c-44 20.667 -79 42.334 -105 65.001z" />
    <glyph glyph-name="afii10096" unicode="&#x44e;" horiz-adv-x="1170" 
d="M239 386c-0.666992 29.333 1.99902 57.333 7.99902 84h-112v-470h-65v768h65v-274h118c20 68.667 60 129 120 181c90.667 78 188.334 117 293.001 117c105.333 0 203.166 -38.833 293.499 -116.5s135.5 -174.167 135.5 -289.5c0 -116.667 -45.167 -213.667 -135.5 -291
s-188.166 -116 -293.499 -116c-104.667 0 -202 38.833 -292 116.5s-135 174.5 -135 290.5zM323.999 387c0 -112.667 32.668 -205.167 98.001 -277.5s146.666 -108.5 243.999 -108.5c98 0 179.833 36 245.5 108s98.5 164.333 98.5 277c0 112 -32.833 204 -98.5 276
s-147.5 108 -245.5 108c-97.333 0 -178.833 -36.167 -244.5 -108.5s-98.167 -163.833 -97.5 -274.5z" />
    <glyph glyph-name="afii10097" unicode="&#x44f;" horiz-adv-x="521" 
d="M84 -8c-14.667 0 -28.0039 3.16602 -40.0039 9.49902s-22.333 15.166 -31 26.499l6 6c8 -8 15.833 -13.333 23.5 -16s15.5 -4 23.5 -4c18.667 0 35.334 13 50.001 39s22 77.667 22 155v66c0 83.333 19.833 141 59.5 173s74.167 49.333 103.5 52
c-18.667 4.66699 -49.334 19.834 -92.001 45.501s-64 59.167 -64 100.5c0 40 17.5 73.667 52.5 101s75.167 41 120.5 41c28.667 0 50.334 -3.66699 65.001 -11s33.334 -11 56.001 -11c5.33301 0 10 0.333008 14 1s8.66699 1.66699 14 3l2 -1v-768h-65v742
c-11.333 7.33301 -23.166 13.5 -35.499 18.5s-27.166 7.5 -44.499 7.5c-31.333 0 -56.833 -11.333 -76.5 -34s-29.5 -52.334 -29.5 -89.001c0 -45.333 15.167 -79.666 45.5 -102.999s62.833 -38 97.5 -44l2 -23c-6.66699 4 -13 6.66699 -19 8s-12.333 2 -19 2
c-22 0 -47.833 -13.833 -77.5 -41.5s-44.5 -84.167 -44.5 -169.5v-78c0 -67.333 -11.833 -118.166 -35.5 -152.499s-51.5 -51.5 -83.5 -51.5z" />
    <glyph glyph-name="afii10071" unicode="&#x451;" horiz-adv-x="535" 
d="M477 0h-407v768h378l22 -59l-5 -3c-18.667 18.667 -36.5 29.5 -53.5 32.5s-44.5 4.5 -82.5 4.5h-194v-270h231c10.667 0 18.667 0.5 24 1.5s11.333 3.5 18 7.5l2 -1v-41l-2 -1c-6.66699 4 -12.667 6.5 -18 7.5s-13.333 1.5 -24 1.5h-231v-423h199
c36 0 69.667 2.5 101 7.5s56.333 16.5 75 34.5l5 -4zM340 827c-10.667 0 -19.5 3.33301 -26.5 10s-10.5 15 -10.5 25s3.5 18.333 10.5 25s15.833 10 26.5 10c9.33301 0 17.5 -3.33301 24.5 -10s10.5 -15 10.5 -25s-3.5 -18.333 -10.5 -25s-15.167 -10 -24.5 -10zM207 827
c-9.33301 0 -17.5 3.33301 -24.5 10s-10.5 15 -10.5 25s3.5 18.333 10.5 25s15.167 10 24.5 10c10.667 0 19.5 -3.33301 26.5 -10s10.5 -15 10.5 -25s-3.5 -18.333 -10.5 -25s-15.833 -10 -26.5 -10z" />
    <glyph glyph-name="afii10101" unicode="&#x454;" horiz-adv-x="789" 
d="M699 247c17.333 -16 25.9961 -41.001 25.9961 -75.001c0 -22.667 -4.66699 -43.334 -14 -62.001s-21.833 -35.167 -37.5 -49.5s-33.667 -26.833 -54 -37.5s-41.333 -19.5 -63 -26.5s-43.167 -12.167 -64.5 -15.5s-41 -5 -59 -5c-58 1.33301 -111 12.166 -159 32.499
s-89 48.5 -123 84.5s-60.333 78.667 -79 128s-28 103.666 -28 162.999c0 58 9.5 111.833 28.5 161.5s45.5 92.834 79.5 129.501s74.333 65.334 121 86.001s97.667 31 153 31c46 0 90.333 -6.83301 133 -20.5s80.667 -32.167 114 -55.5l-27 -52
c-28 36.667 -61.667 63.5 -101 80.5s-80.666 25.5 -123.999 25.5c-41.333 0 -78.666 -7.33301 -111.999 -22s-62.333 -35 -87 -61s-44.667 -56.833 -60 -92.5s-25.666 -74.5 -30.999 -116.5l405 -1c10.667 0 18.667 0.5 24 1.5s11.333 3.5 18 7.5l2 -1v-41l-2 -1
c-6.66699 4 -12.667 6.5 -18 7.5s-13.333 1.5 -24 1.5l-408 1c-5.33301 -56 -4.16602 -111.167 3.50098 -165.5s23.167 -102.833 46.5 -145.5s55.5 -77.167 96.5 -103.5s92.5 -39.5 154.5 -39.5c28 0 55.167 3.33301 81.5 10s50 17.334 71 32.001s37.833 33 50.5 55
s19 48.667 19 80c0 21.333 -2.83301 37.833 -8.5 49.5s-14.834 20.834 -27.501 27.501c0.666992 5.33301 4.33398 9.83301 11.001 13.5s14 5.5 22 5.5c17.333 0 34.333 -8.33301 51 -25z" />
    <glyph glyph-name="afii10103" unicode="&#x456;" horiz-adv-x="203" 
d="M133 768v-768h-63v768h63z" />
    <glyph glyph-name="afii10104" unicode="&#x457;" horiz-adv-x="203" 
d="M133 768v-768h-63v768h63zM170 827c-10.667 0 -19.5 3.33301 -26.5 10s-10.5 15 -10.5 25s3.5 18.333 10.5 25s15.833 10 26.5 10c9.33301 0 17.5 -3.33301 24.5 -10s10.5 -15 10.5 -25s-3.5 -18.333 -10.5 -25s-15.167 -10 -24.5 -10zM37 827
c-9.33301 0 -17.5 3.33301 -24.5 10s-10.5 15 -10.5 25s3.5 18.333 10.5 25s15.167 10 24.5 10c10.667 0 19.5 -3.33301 26.5 -10s10.5 -15 10.5 -25s-3.5 -18.333 -10.5 -25s-15.833 -10 -26.5 -10z" />
    <glyph glyph-name="afii10110" unicode="&#x45e;" horiz-adv-x="642" 
d="M596 768h38l-399 -768h-38l112 216l-293 552h74l256 -480zM338 806c-20.667 0 -38.998 2.5 -54.998 7.5s-29.333 11.667 -40 20s-18.834 17.666 -24.501 27.999s-8.5 20.5 -8.5 30.5c0 8 3.16699 14.333 9.5 19s13.166 7.16699 20.499 7.5s14 -1.66699 20 -6
s8.33301 -11.5 7 -21.5c0 -25.333 5.5 -43.333 16.5 -54s29.167 -16 54.5 -16s43.5 5.33301 54.5 16s16.5 28.667 16.5 54c-1.33301 10 1 17.167 7 21.5s12.833 6.33301 20.5 6s14.667 -2.83301 21 -7.5s9.5 -11 9.5 -19c0 -10 -2.83301 -20.167 -8.5 -30.5
s-14 -19.666 -25 -27.999s-24.5 -15 -40.5 -20s-34.333 -7.5 -55 -7.5z" />
    <glyph glyph-name="afii10146" unicode="&#x462;" horiz-adv-x="958" 
d="M135 744l0.00195312 -744.001h-65v768h450v-290c14.667 6 31.167 10.167 49.5 12.5s35.166 3.5 50.499 3.5c40.667 0.666992 78.167 -5.5 112.5 -18.5s64.166 -30.667 89.499 -53s45.333 -48.166 60 -77.499s23 -60 25 -92s-3.16699 -64.167 -15.5 -96.5
s-33.5 -62.5 -63.5 -90.5c-27.333 -25.333 -58.666 -44.5 -93.999 -57.5s-73.333 -19.5 -114 -19.5c-11.333 0 -24.333 0.666992 -39 2s-28 3.33301 -40 6c-24 6 -46.333 9 -67 9c-3.33301 0 -6.33301 -0.166992 -9 -0.5s-5.33398 -0.833008 -8.00098 -1.5l-2 1v739h-320z
M520.002 37.999c10 -8.66699 23.5 -15.5 40.5 -20.5s36.833 -7.5 59.5 -7.5c34.667 0 64.5 7 89.5 21s45.667 32.333 62 55s28.5 48.5 36.5 77.5s12.333 58.167 13 87.5c0 30 -4.33301 58.333 -13 85s-21.5 50.167 -38.5 70.5s-38 36.5 -63 48.5s-53.833 18 -86.5 18
c-22.667 0 -42.5 -2.5 -59.5 -7.5s-30.5 -11.833 -40.5 -20.5v-407z" />
    <glyph glyph-name="afii10194" unicode="&#x463;" horiz-adv-x="692" 
d="M194 668l0.00195312 94.999h65v-95h153l26 -67l-5 -3c-18.667 21.333 -37.167 34.166 -55.5 38.499s-46.5 6.5 -84.5 6.5h-34v-170c14.667 6 31.167 10.167 49.5 12.5s35.166 3.5 50.499 3.5c40.667 0.666992 78.167 -5.5 112.5 -18.5s64.166 -30.667 89.499 -53
s45.333 -48.166 60 -77.499s23 -60 25 -92s-3.16699 -64.167 -15.5 -96.5s-33.5 -62.5 -63.5 -90.5c-27.333 -25.333 -58.666 -44.5 -93.999 -57.5s-73.333 -19.5 -114 -19.5c-11.333 0 -24.333 0.666992 -39 2s-28 3.33301 -40 6c-24 6 -46.333 9 -67 9
c-3.33301 0 -6.33301 -0.166992 -9 -0.5s-5.33398 -0.833008 -8.00098 -1.5l-2 1v643h-34c-38 0 -66.167 -2.16699 -84.5 -6.5s-36.833 -17.166 -55.5 -38.499l-5 3l26 67h153zM259.002 32.999c10 -8.66699 23.5 -15.5 40.5 -20.5s36.833 -7.5 59.5 -7.5
c34.667 0 64.5 7 89.5 21s45.667 32.333 62 55s28.5 48.5 36.5 77.5s12.333 58.167 13 87.5c0 30 -4.33301 58.333 -13 85s-21.5 50.167 -38.5 70.5s-38 36.5 -63 48.5s-53.833 18 -86.5 18c-22.667 0 -42.5 -2.5 -59.5 -7.5s-30.5 -11.833 -40.5 -20.5v-407z" />
    <glyph glyph-name="afii10050" unicode="&#x490;" horiz-adv-x="470" 
d="M406 743h-271v-743h-65v768h217c32 0 58.5 6.16699 79.5 18.5s40.5 32.5 58.5 60.5l8 -4z" />
    <glyph glyph-name="afii10098" unicode="&#x491;" horiz-adv-x="470" 
d="M406 743h-271v-743h-65v768h217c32 0 58.5 6.16699 79.5 18.5s40.5 32.5 58.5 60.5l8 -4z" />
    <glyph glyph-name="endash" unicode="&#x2013;" horiz-adv-x="450" 
d="M420 396v-28h-390v28h390z" />
    <glyph glyph-name="emdash" unicode="&#x2014;" horiz-adv-x="750" 
d="M720 396v-28h-690v28h690z" />
    <glyph glyph-name="quoteleft" unicode="&#x2018;" horiz-adv-x="180" 
d="M160 789l10 -12.001c-23.333 -19.333 -44.166 -43.833 -62.499 -73.5s-29.5 -55.167 -33.5 -76.5c14.667 -1.33301 26.167 -5.66602 34.5 -12.999s12.5 -18.333 12.5 -33c0 -12.667 -4.5 -23.334 -13.5 -32.001s-19.833 -13 -32.5 -13s-23.334 4.33301 -32.001 13
s-13 21.334 -13 38.001c0 18.667 5.5 40.167 16.5 64.5s24.167 46.166 39.5 65.499c20.667 26 36.5 43.333 47.5 52s19.833 15.334 26.5 20.001z" />
    <glyph glyph-name="quoteright" unicode="&#x2019;" horiz-adv-x="180" 
d="M20 526l-10 12.001c23.333 19.333 44.166 43.833 62.499 73.5s29.5 55.167 33.5 76.5c-14.667 1.33301 -26.167 5.66602 -34.5 12.999s-12.5 18.333 -12.5 33c0 12.667 4.5 23.334 13.5 32.001s19.833 13 32.5 13s23.334 -4.33301 32.001 -13s13 -21.334 13 -38.001
c0 -18.667 -5.5 -40.167 -16.5 -64.5s-24.167 -46.166 -39.5 -65.499c-20.667 -26 -36.5 -43.333 -47.5 -52s-19.833 -15.334 -26.5 -20.001z" />
    <glyph glyph-name="quotedblleft" unicode="&#x201c;" horiz-adv-x="311" 
d="M160 789l10 -12.001c-23.333 -19.333 -44.166 -43.833 -62.499 -73.5s-29.5 -55.167 -33.5 -76.5c14.667 -1.33301 26.167 -5.66602 34.5 -12.999s12.5 -18.333 12.5 -33c0 -12.667 -4.5 -23.334 -13.5 -32.001s-19.833 -13 -32.5 -13s-23.334 4.33301 -32.001 13
s-13 21.334 -13 38.001c0 18.667 5.5 40.167 16.5 64.5s24.167 46.166 39.5 65.499c20.667 26 36.5 43.333 47.5 52s19.833 15.334 26.5 20.001zM291 788.999l10 -12.001c-23.333 -19.333 -44.166 -43.833 -62.499 -73.5s-29.5 -55.167 -33.5 -76.5
c14.667 -1.33301 26.167 -5.66602 34.5 -12.999s12.5 -18.333 12.5 -33c0 -12.667 -4.5 -23.334 -13.5 -32.001s-19.833 -13 -32.5 -13s-23.334 4.33301 -32.001 13s-13 21.334 -13 38.001c0 18.667 5.5 40.167 16.5 64.5s24.167 46.166 39.5 65.499
c20.667 26 36.5 43.333 47.5 52s19.833 15.334 26.5 20.001z" />
    <glyph glyph-name="quotedblright" unicode="&#x201d;" horiz-adv-x="311" 
d="M20 526l-10 12.001c23.333 19.333 44.166 43.833 62.499 73.5s29.5 55.167 33.5 76.5c-14.667 1.33301 -26.167 5.66602 -34.5 12.999s-12.5 18.333 -12.5 33c0 12.667 4.5 23.334 13.5 32.001s19.833 13 32.5 13s23.334 -4.33301 32.001 -13s13 -21.334 13 -38.001
c0 -18.667 -5.5 -40.167 -16.5 -64.5s-24.167 -46.166 -39.5 -65.499c-20.667 -26 -36.5 -43.333 -47.5 -52s-19.833 -15.334 -26.5 -20.001zM151 526.001l-10 12.001c23.333 19.333 44.166 43.833 62.499 73.5s29.5 55.167 33.5 76.5
c-14.667 1.33301 -26.167 5.66602 -34.5 12.999s-12.5 18.333 -12.5 33c0 12.667 4.5 23.334 13.5 32.001s19.833 13 32.5 13s23.334 -4.33301 32.001 -13s13 -21.334 13 -38.001c0 -18.667 -5.5 -40.167 -16.5 -64.5s-24.167 -46.166 -39.5 -65.499
c-20.667 -26 -36.5 -43.333 -47.5 -52s-19.833 -15.334 -26.5 -20.001z" />
    <glyph glyph-name="quotedblbase" unicode="&#x201e;" horiz-adv-x="291" 
d="M131 -164l-10 12.001c23.333 19.333 44.166 43.833 62.499 73.5s29.5 55.167 33.5 76.5c-14.667 1.33301 -26.167 5.66602 -34.5 12.999s-12.5 18.333 -12.5 33c0 12.667 4.5 23.334 13.5 32.001s19.833 13 32.5 13s23.334 -4.33301 32.001 -13s13 -21.334 13 -38.001
c0 -18.667 -5.5 -40.167 -16.5 -64.5s-24.167 -46.166 -39.5 -65.499c-20.667 -26 -36.5 -43.333 -47.5 -52s-19.833 -15.334 -26.5 -20.001zM0 -163.999l-10 12.001c23.333 19.333 44.166 43.833 62.499 73.5s29.5 55.167 33.5 76.5
c-14.667 1.33301 -26.167 5.66602 -34.5 12.999s-12.5 18.333 -12.5 33c0 12.667 4.5 23.334 13.5 32.001s19.833 13 32.5 13s23.334 -4.33301 32.001 -13s13 -21.334 13 -38.001c0 -18.667 -5.5 -40.167 -16.5 -64.5s-24.167 -46.166 -39.5 -65.499
c-20.667 -26 -36.5 -43.333 -47.5 -52s-19.833 -15.334 -26.5 -20.001z" />
    <glyph glyph-name="bullet" unicode="&#x2022;" horiz-adv-x="198" 
d="M99 331c-18.667 0 -34.834 6.83301 -48.501 20.5s-20.5 29.834 -20.5 48.501s6.83301 35 20.5 49s29.834 21 48.501 21s34.834 -7 48.501 -21s20.5 -30.333 20.5 -49s-6.83301 -34.834 -20.5 -48.501s-29.834 -20.5 -48.501 -20.5z" />
    <glyph glyph-name="ellipsis" unicode="&#x2026;" horiz-adv-x="639" 
d="M119 45c0 -13.333 -4.83301 -25 -14.5 -35s-21.167 -15 -34.5 -15c-14 0 -25.833 5 -35.5 15s-14.5 21.667 -14.5 35c0 14 4.83301 25.833 14.5 35.5s21.5 14.5 35.5 14.5c13.333 0 24.833 -4.83301 34.5 -14.5s14.5 -21.5 14.5 -35.5zM369 45
c0 -13.333 -4.83301 -25 -14.5 -35s-21.167 -15 -34.5 -15c-14 0 -25.833 5 -35.5 15s-14.5 21.667 -14.5 35c0 14 4.83301 25.833 14.5 35.5s21.5 14.5 35.5 14.5c13.333 0 24.833 -4.83301 34.5 -14.5s14.5 -21.5 14.5 -35.5zM619 45c0 -13.333 -4.83301 -25 -14.5 -35
s-21.167 -15 -34.5 -15c-14 0 -25.833 5 -35.5 15s-14.5 21.667 -14.5 35c0 14 4.83301 25.833 14.5 35.5s21.5 14.5 35.5 14.5c13.333 0 24.833 -4.83301 34.5 -14.5s14.5 -21.5 14.5 -35.5z" />
    <glyph glyph-name="Euro" unicode="&#x20ac;" horiz-adv-x="749" 
d="M676 111c-22.667 -20 -52.666 -39.165 -89.999 -57.498s-83.666 -27.5 -138.999 -27.5c-93.333 0 -174.5 27.667 -243.5 83s-108.5 131.666 -118.5 228.999h-55v28h53v7.5v7.5c0 6.66699 0.166992 13 0.5 19s0.833008 12 1.5 18h-55v28h58
c14.667 95.333 58.5 170.166 131.5 224.499s154.5 81.5 244.5 81.5c40 0 78.167 -7.66699 114.5 -23s64.833 -30.666 85.5 -45.999l-18 -35c-22.667 22.667 -50.334 42.167 -83.001 58.5s-68 24.5 -106 24.5c-82.667 0 -153.334 -25.833 -212.001 -77.5
s-92.667 -120.834 -102 -207.501h327v-28h-329v-7.5v-7.5v-19c0 -6 0.333008 -12 1 -18h278v-28h-275c12.667 -101.333 51.5 -173 116.5 -215s134.5 -63 208.5 -63c46 0 86.5 7.66699 121.5 23s60.5 28.333 76.5 39z" />
    <glyph glyph-name="afii61352" unicode="&#x2116;" horiz-adv-x="966" 
d="M70 0v768h37l381 -625v625h36v-768h-19l-399 648v-648h-36zM854 380v-28h-210v28h210zM595 611c0 43.333 14.667 79.833 44 109.5s67 44.5 113 44.5c44 0 81 -14.833 111 -44.5s45 -66.167 45 -109.5c0 -44.667 -15 -81.667 -45 -111s-67 -44 -111 -44
c-46 0 -83.667 14.833 -113 44.5s-44 66.5 -44 110.5zM630 611c0 -44 12.333 -77.833 37 -101.5s53 -35.5 85 -35.5c31.333 0 59.333 11.833 84 35.5s37 57.5 37 101.5c0 43.333 -12.333 76.833 -37 100.5s-52.667 35.5 -84 35.5c-32 0 -60.333 -11.833 -85 -35.5
s-37 -57.167 -37 -100.5zM854 308v-28h-210v28h210z" />
    <glyph glyph-name="trademark" unicode="&#x2122;" horiz-adv-x="586" 
d="M112 454v287h-52c-8.66699 0 -16.667 -2.66699 -24 -8s-14.333 -11 -21 -17l-5 4l14 48h216l14 -48l-5 -4c-6.66699 6 -13.667 11.667 -21 17s-15.333 8 -24 8h-54v-287h-38zM277 454v314h25l120 -193l117 193h31v-314h-38v253l-111 -182h-8l-102 165v-236h-34z" />
    </font>
</defs>
</svg>
