<svg width="157" height="158" viewBox="0 0 157 158" fill="none" xmlns="http://www.w3.org/2000/svg">
<path d="M1.71604 64.5504L1.81888 63.7208L17.5068 74.5104L17.404 75.34L12.9912 72.3102L0.146508 77.2135L0.346759 75.5979L11.5193 71.3076L1.71604 64.5504Z" fill="#202020"/>
<path d="M11.2841 55.6481C11.5701 55.0666 11.7445 54.4894 11.8072 53.9165C11.8753 53.33 11.7543 52.7651 11.4443 52.222C11.1091 51.622 10.6475 51.1464 10.0597 50.7951C9.45816 50.4385 8.83832 50.2321 8.20016 50.1757C7.562 50.1192 6.96292 50.2271 6.40291 50.4991C5.8429 50.7712 5.43677 51.2359 5.18451 51.8931C4.85342 52.7558 4.83242 53.5882 5.12151 54.3904C5.40216 55.1736 5.95072 55.8319 6.76717 56.3652L5.54046 57.1669C4.8901 56.2417 4.52826 55.3016 4.45493 54.3466C4.36791 53.3863 4.50522 52.4965 4.86688 51.677C5.21802 50.8849 5.66405 50.2548 6.20497 49.7869C6.74588 49.319 7.31903 49.0127 7.9244 48.868C8.52134 48.7044 9.11365 48.6961 9.70133 48.8431C10.2806 48.9711 10.7909 49.2377 11.2324 49.6428C11.6739 50.0479 12.0055 50.5757 12.2271 51.2263C12.4487 51.877 12.4934 52.6403 12.3614 53.5165C12.68 52.9319 13.0846 52.4509 13.575 52.0736C14.0707 51.6826 14.6075 51.4095 15.1855 51.2543C15.7551 51.0801 16.3452 51.016 16.956 51.0619C17.5583 51.0889 18.135 51.2238 18.6858 51.4666C19.2283 51.6905 19.7287 52.024 20.1871 52.467C20.6507 52.8963 21.0149 53.4209 21.2796 54.041C21.865 55.381 21.8397 56.8795 21.2038 58.5363C21.0041 59.0566 20.6954 59.5744 20.2778 60.0896C19.879 60.5964 19.4207 61.0332 18.9029 61.4C18.3904 61.7531 17.8451 62.0073 17.2671 62.1625C16.6807 62.2987 16.1068 62.2591 15.5453 62.0436C14.847 61.7756 14.4019 61.4005 14.2099 60.9184C13.9989 60.4447 13.9618 60.0298 14.0984 59.6738C14.1615 59.5095 14.2604 59.3747 14.3951 59.2693C14.5161 59.1586 14.634 59.1175 14.7488 59.1458C14.7859 59.4585 14.904 59.7238 15.1032 59.9416C15.2939 60.1405 15.6084 60.324 16.0465 60.4922C16.5395 60.6814 17.0176 60.7864 17.481 60.8071C17.9495 60.8141 18.3965 60.7343 18.8218 60.5676C19.2334 60.3957 19.6097 60.1317 19.9506 59.7755C20.2778 59.4141 20.5518 58.9459 20.7725 58.3708C21.2875 57.0289 21.193 55.9243 20.489 55.0571C20.1591 54.6478 19.744 54.2763 19.2436 53.9429C18.7347 53.5905 18.1928 53.3039 17.6177 53.0832C17.0426 52.8625 16.4591 52.725 15.8673 52.6706C15.2618 52.611 14.7 52.6625 14.182 52.825C13.5367 53.0329 13.0136 53.4134 12.6128 53.9665C12.2173 54.5059 11.9318 55.1269 11.7565 55.8294L11.2841 55.6481Z" fill="#202020"/>
<path d="M24.2717 49.6348L10.3935 39.9978L11.2092 38.8232L16.1605 42.2614L21.0794 35.1778L16.1281 31.7396L16.9437 30.565L30.8218 40.202L30.0062 41.3766L21.5131 35.4789L16.5942 42.5625L25.0873 48.4602L24.2717 49.6348Z" fill="#202020"/>
<path d="M31.3432 32.5586L37.691 25.6392L27.7346 21.2483L31.3432 32.5586ZM43.5325 28.2179L38.4121 25.9548L31.5374 33.1699L32.7984 37.1588L32.2237 37.6375L26.9995 20.9158C26.8887 20.8744 26.7854 20.865 26.6896 20.8875C26.5845 20.8988 26.4727 20.925 26.3544 20.9663L26.2896 20.9917L26.0362 20.6874L27.5406 19.6061L44.7834 27.1759L43.5325 28.2179Z" fill="#202020"/>
<path d="M45.2685 8.57199L45.1491 8.62835L52.1376 23.4295L50.8843 24.0212L43.8958 9.22012L43.7764 9.27648C43.1531 9.57079 42.4358 9.95812 41.6246 10.4385C40.8133 10.9188 40.2916 11.3598 40.0595 11.7613L39.9518 11.7392L39.9701 10.4898L48.624 6.40378L49.6004 7.18355L49.549 7.2808C49.0914 7.20489 48.4194 7.32753 47.5331 7.64872C46.6467 7.96992 45.8918 8.27768 45.2685 8.57199Z" fill="#202020"/>
<path d="M58.5372 9.70389C58.8235 9.50494 59.1551 9.34097 59.5321 9.21198C59.9202 9.0655 60.2789 8.95561 60.6082 8.88232C61.4783 8.67362 62.3103 8.63119 63.1041 8.755C63.9091 8.86131 64.6378 9.0973 65.2902 9.46297C65.9393 9.81432 66.4915 10.2699 66.9467 10.8297C67.4018 11.3895 67.7274 12.0083 67.9233 12.6859C68.1192 13.3635 68.1592 14.0833 68.0433 14.8454C67.9386 15.5899 67.631 16.3345 67.1206 17.0792C66.6547 17.7539 66.0743 18.3188 65.3792 18.774C64.681 19.2149 63.8952 19.5326 63.0219 19.7269C62.7786 19.7811 62.4962 19.8289 62.1749 19.8704C61.8535 19.9119 61.5577 19.9327 61.2872 19.9327C60.7431 19.9186 60.2492 19.9609 59.8054 20.0597C59.7338 20.0756 59.671 20.0971 59.6169 20.1242C59.5597 20.137 59.504 20.1569 59.4499 20.1839L59.4022 20.172L55.7552 3.78697L57.1511 3.47628L58.5372 9.70389ZM60.6403 19.1527C60.8965 19.291 61.2162 19.3776 61.5996 19.4124C61.9942 19.4298 62.4348 19.3843 62.9216 19.276C63.666 19.1103 64.2696 18.8182 64.7324 18.3996C65.2095 17.9779 65.5657 17.4854 65.801 16.9222C66.0505 16.3557 66.1927 15.7456 66.2275 15.0918C66.2591 14.4236 66.2119 13.773 66.086 13.1399C65.9426 12.4957 65.7141 11.9079 65.4006 11.3767C65.087 10.8455 64.6963 10.4065 64.2285 10.0599C63.7718 9.69575 63.2428 9.44537 62.6414 9.30876C62.0543 9.16897 61.41 9.17714 60.7085 9.33328C60.2218 9.44162 59.805 9.59448 59.4583 9.79186C59.1227 9.97174 58.8682 10.1786 58.6949 10.4125L60.6403 19.1527Z" fill="#202020"/>
<path d="M81.3119 17.0307L83.968 0.344793L95.3092 2.15006L92.6532 18.836L91.2409 18.6112L93.814 2.4467L85.2972 1.09102L82.7242 17.2555L81.3119 17.0307Z" fill="#202020"/>
<path d="M99.8406 11.3724C100.93 9.09696 102.74 7.62014 105.271 6.94195C107.815 6.27017 110.122 6.43742 112.193 7.44371C114.278 8.45641 115.835 10.1671 116.866 12.5759C117.917 14.9778 117.888 17.3199 116.779 19.6022C115.658 21.9108 113.828 23.3944 111.29 24.0529C108.766 24.7179 106.461 24.5441 104.377 23.5314C102.306 22.5251 100.752 20.8242 99.7142 18.4286C98.6832 16.0199 98.7253 13.6678 99.8406 11.3724ZM101.532 12.1698C100.449 14.3993 100.204 16.547 100.799 18.6131C101.399 20.666 102.663 22.1603 104.589 23.0961C106.528 24.0383 108.49 24.111 110.475 23.3144C112.473 22.5242 114.014 21.0144 115.097 18.7849C116.174 16.5687 116.405 14.4309 115.792 12.3716C115.191 10.3188 113.921 8.82124 111.982 7.87905C110.056 6.94326 108.091 6.87707 106.086 7.68047C104.101 8.47708 102.583 9.97353 101.532 12.1698Z" fill="#202020"/>
<path d="M115.976 29.4181C115.475 28.9239 114.908 28.6636 114.275 28.6371C113.642 28.6313 112.969 28.7088 112.254 28.8695L112.191 28.6833L114.559 27.126L115.609 28.1607L131.714 22.1943C131.744 22.08 131.728 21.992 131.665 21.9302C131.613 21.858 131.56 21.765 131.508 21.6513L131.476 21.5893L131.754 21.3073L133.07 22.6045L126.703 39.0942L127.847 40.2216L126.324 42.6128L126.137 42.552C126.287 41.8353 126.35 41.1555 126.324 40.5127C126.299 39.8906 126.036 39.3324 125.534 38.8383L115.976 29.4181ZM116.142 28.6857L125.543 37.9515L131.455 22.9585L116.142 28.6857Z" fill="#202020"/>
<path d="M129.447 44.1742L128.72 42.943L143.267 34.3493L143.308 34.376C143.343 34.4919 143.376 34.5915 143.408 34.6747C143.448 34.7706 143.497 34.869 143.557 34.97C143.833 35.4373 144.141 35.8003 144.482 36.0592C144.822 36.3181 145.175 36.757 145.54 37.3757C146.122 38.3607 146.313 39.5342 146.112 40.8961C145.925 42.2506 145.206 43.2971 143.955 44.0356C142.478 44.9084 141.108 45.011 139.844 44.3434C138.581 43.6757 137.711 42.9378 137.234 42.1296C137.069 41.8518 136.947 41.6007 136.865 41.3762C136.804 41.157 136.776 40.9945 136.782 40.8889L137.065 40.8494C137.092 40.9527 137.131 41.0913 137.183 41.2652C137.234 41.4391 137.346 41.6713 137.518 41.9617C137.958 42.7068 138.684 43.1721 139.696 43.3576C140.716 43.5557 141.845 43.2893 143.083 42.5582C144.143 41.9316 144.859 41.1253 145.231 40.1393C145.61 39.1659 145.553 38.2625 145.061 37.429C144.822 37.0249 144.553 36.6986 144.253 36.4501C143.972 36.2067 143.71 36.0213 143.464 35.8938L129.447 44.1742Z" fill="#202020"/>
<path d="M143.248 50.3159C145.679 49.6419 147.982 50.036 150.156 51.4982C152.334 52.9746 153.724 54.8241 154.326 57.0466C154.932 59.2832 154.666 61.5815 153.528 63.9414C152.407 66.3117 150.623 67.8286 148.174 68.4923C145.696 69.1636 143.376 68.7592 141.212 67.2789C139.052 65.8129 137.669 63.9615 137.063 61.7248C136.461 59.5023 136.722 57.213 137.846 54.857C138.984 52.4971 140.785 50.9834 143.248 50.3159ZM143.758 52.115C141.366 52.7633 139.586 53.9902 138.419 55.7956C137.266 57.5973 136.97 59.5315 137.53 61.5982C138.094 63.6792 139.328 65.2061 141.233 66.1791C143.142 67.1663 145.292 67.3357 147.685 66.6874C150.063 66.0429 151.826 64.8128 152.976 62.997C154.128 61.1954 154.423 59.2541 153.859 57.1732C153.299 55.1064 152.058 53.5813 150.135 52.598C148.23 51.625 146.104 51.464 143.758 52.115Z" fill="#202020"/>
<path d="M150.337 75.0264C150.464 75.351 150.547 75.6457 150.587 75.9103C150.642 76.1899 150.666 76.4983 150.661 76.8356C150.662 77.7304 150.51 78.5421 150.205 79.2708C149.915 80.0144 149.517 80.6464 149.01 81.1666C148.517 81.7017 147.946 82.1183 147.296 82.4163C146.646 82.7143 145.969 82.8799 145.264 82.913C144.56 82.9461 143.85 82.8178 143.136 82.5281C142.436 82.2532 141.783 81.7811 141.178 81.1117C140.067 79.8917 139.525 78.4092 139.552 76.664C139.556 76.4147 139.574 76.195 139.606 76.0048C139.639 75.8146 139.686 75.588 139.749 75.3249C139.889 74.799 139.963 74.3088 139.97 73.8542C139.971 73.7808 139.972 73.7075 139.973 73.6342C139.959 73.5753 139.953 73.5092 139.954 73.4359L156.76 73.6954L156.643 81.2845L155.16 81.8336L155.096 81.7226C155.572 81.3193 155.857 80.913 155.951 80.5037C156.06 80.1093 156.12 79.4942 156.133 78.6583L156.188 75.1167L150.337 75.0264ZM140.658 74.8769C140.464 75.0939 140.306 75.3189 140.185 75.5517C140.079 75.7994 140.022 76.1726 140.014 76.6712C140.002 77.4338 140.146 78.0814 140.446 78.6141C140.746 79.1614 141.142 79.6076 141.636 79.9526C142.129 80.2976 142.69 80.5556 143.318 80.7267C143.961 80.898 144.605 80.9959 145.25 81.0205C145.91 81.0307 146.534 80.9524 147.123 80.7854C147.713 80.6332 148.23 80.3771 148.676 80.0173C149.136 79.6724 149.502 79.2306 149.774 78.6921C150.046 78.1683 150.188 77.547 150.199 76.8284C150.207 76.3298 150.154 75.955 150.04 75.7039C149.941 75.4676 149.798 75.2381 149.611 75.0152L140.658 74.8769Z" fill="#202020"/>
<path d="M139.72 87.2198L156.06 91.5152L155.697 92.8982L149.867 91.3657L147.674 99.7064L153.504 101.239L153.141 102.622L136.8 98.3265L137.164 96.9435L147.164 99.5722L149.356 91.2315L139.356 88.6028L139.72 87.2198Z" fill="#202020"/>
<path d="M131.162 110.273L135.4 102.385L150.284 110.382L146.348 117.707L144.975 117.519L144.969 117.391C145.525 117.224 145.919 116.986 146.152 116.678C146.39 116.39 146.707 115.877 147.102 115.141L149.122 111.381L143.89 108.57L141.484 113.046C141.373 113.253 141.297 113.412 141.254 113.522C141.224 113.639 141.213 113.783 141.222 113.954L141.181 113.982L140.387 113.556L140.388 113.506C140.535 113.419 140.643 113.327 140.711 113.23C140.793 113.141 140.889 112.993 141 112.786L143.405 108.309L135.207 103.905L133.135 107.762C132.761 108.459 132.455 109.136 132.219 109.792C131.997 110.455 131.962 111.061 132.117 111.61L131.987 111.665L131.162 110.273Z" fill="#202020"/>
<path d="M123.295 120.618L129.101 113.801L141.964 124.756L136.573 131.087L135.27 130.614L135.292 130.488C135.87 130.441 136.306 130.292 136.598 130.04C136.891 129.808 137.309 129.374 137.851 128.737L140.618 125.488L136.096 121.637L132.801 125.506C132.649 125.684 132.54 125.823 132.476 125.922C132.422 126.03 132.381 126.169 132.353 126.338L132.307 126.357L131.621 125.772L131.633 125.724C131.795 125.67 131.919 125.603 132.007 125.523C132.105 125.452 132.23 125.328 132.382 125.149L135.677 121.28L128.592 115.246L125.754 118.58C125.24 119.183 124.799 119.78 124.43 120.371C124.073 120.972 123.912 121.557 123.947 122.127L123.809 122.153L123.295 120.618Z" fill="#202020"/>
<path d="M118.896 136.481C120.028 138.735 120.088 141.07 119.075 143.487C118.048 145.909 116.503 147.632 114.44 148.653C112.363 149.681 110.057 149.866 107.521 149.206C104.979 148.567 103.144 147.11 102.019 144.836C100.88 142.536 100.827 140.181 101.86 137.771C102.879 135.368 104.427 133.652 106.504 132.624C108.568 131.602 110.864 131.415 113.394 132.061C115.929 132.72 117.763 134.194 118.896 136.481ZM117.23 137.33C116.13 135.109 114.581 133.601 112.584 132.806C110.593 132.024 108.638 132.108 106.719 133.058C104.787 134.014 103.528 135.521 102.943 137.579C102.344 139.642 102.595 141.785 103.695 144.006C104.788 146.214 106.336 147.706 108.34 148.482C110.331 149.263 112.293 149.176 114.225 148.22C116.144 147.27 117.4 145.756 117.992 143.679C118.577 141.622 118.323 139.505 117.23 137.33Z" fill="#202020"/>
<path d="M73.5904 141.654C74.1255 141.161 74.888 140.673 75.878 140.188C76.868 139.704 78.0522 139.451 79.4307 139.429C81.8651 139.392 84.0696 140.142 86.0443 141.681C88.0189 143.22 89.027 145.332 89.0684 148.015C89.1115 150.802 88.1337 153.024 86.135 154.684C84.1217 156.343 81.9272 157.191 79.5515 157.227C78.305 157.247 77.2095 157.073 76.2651 156.706C75.3209 156.354 74.5966 155.999 74.0924 155.64L74.6686 154.487C75.2354 155.094 75.9109 155.619 76.6952 156.061C77.4797 156.519 78.5098 156.738 79.7857 156.718C81.883 156.7 83.6684 155.954 85.1418 154.479C86.6152 153.004 87.3328 151.035 87.2948 148.571C87.2472 145.491 86.3337 143.327 84.5542 142.078C82.7747 140.83 80.9171 140.22 78.9813 140.25C77.7202 140.27 76.638 140.484 75.7349 140.894C74.8171 141.305 74.1696 141.645 73.7924 141.915L73.5904 141.654Z" fill="#202020"/>
<path d="M60.7538 154.094L60.8819 154.125L64.802 138.234L66.1477 138.566L62.2276 154.457L62.3557 154.489C63.025 154.654 63.8259 154.806 64.7583 154.946C65.6907 155.085 66.3736 155.072 66.8071 154.907L66.8767 154.992L66.074 155.95L56.7826 153.658L56.5173 152.437L56.6185 152.394C56.9255 152.742 57.5242 153.071 58.4144 153.381C59.3047 153.691 60.0845 153.929 60.7538 154.094Z" fill="#202020"/>
<path d="M38.974 146.005L38.2318 145.621L53.8005 134.66L54.5428 135.044L50.1683 138.129L50.3025 151.878L48.8572 151.128L48.7167 139.161L38.974 146.005Z" fill="#202020"/>
<path d="M42.2289 128.435C42.7374 128.922 43.3083 129.174 43.9414 129.191C44.5741 129.188 45.2465 129.1 45.9585 128.929L46.0248 129.115L43.6788 130.706L42.6141 129.687L26.5979 135.887C26.5693 136.001 26.5868 136.089 26.6503 136.15C26.7037 136.221 26.7576 136.314 26.812 136.427L26.8444 136.488L26.5706 136.774L25.2357 135.496L31.3627 118.916L30.2026 117.805L31.6904 115.392L31.8784 115.45C31.7385 116.169 31.6859 116.849 31.7206 117.492C31.7549 118.113 32.0264 118.668 32.5349 119.155L42.2289 128.435ZM42.0737 129.17L32.5387 120.041L26.8457 135.119L42.0737 129.17Z" fill="#202020"/>
<path d="M28.5291 114.181L29.2428 115.42L14.6015 123.852L13.8878 122.613L26.1842 115.531L11.2232 114.196L9.58372 115.14L8.87004 113.901L23.5114 105.468L24.2251 106.708L12.0049 113.746L26.9849 115.07L28.5291 114.181Z" fill="#202020"/>
<path d="M21.2084 100.501L21.5877 101.88L5.29673 106.361L4.91747 104.982L18.5993 101.219L4.45447 96.1651L2.63022 96.6669L2.25096 95.2881L18.5419 90.807L18.9212 92.1858L5.32417 95.9259L19.4902 100.974L21.2084 100.501Z" fill="#202020"/>
<path d="M77.3917 67.2881L97.61 79.1812L101.178 81.6741L107.125 79.1812L101.178 76.8026L77.3917 67.2881Z" fill="#2B2B2B"/>
<path d="M101.178 81.6741L97.61 79.1812L77.4521 91.6198L101.178 81.6741Z" fill="#2B2B2B"/>
<path d="M97.6101 79.1812H46.4697" stroke="#2A2A2A"/>
</svg>
